<?xml version="1.0" encoding="UTF-8"?>
<svg id="a" data-name="Layer 1" xmlns="http://www.w3.org/2000/svg" viewBox="0 0 73.89 67.31">
  <g>
    <g>
      <path d="M24.33,10.73v47.72c-4.91.55-8.96,1.37-12.25,2.25v-1.84c1.54-.05,2.96-.9,3.73-2.24.3-.52.49-1.09.56-1.69.49-.37.89-.81,1.19-1.34,1.14-1.97.61-4.45-1.15-5.81.15-1.71-.7-3.39-2.22-4.27-.64-.37-1.37-.57-2.11-.58v-25.77s12.25-6.43,12.25-6.43Z" fill="#f6f6f6"/>
      <path d="M25.34,10.72v47.62c-.16,0-.32.03-.48.05V10.72h.48Z" fill="#f6f6f6"/>
      <path d="M26.31,10.72v47.52c-.16.02-.32.03-.48.05V10.72h.48Z" fill="#f6f6f6"/>
      <path d="M27.26,10.72v47.44c-.16,0-.32.02-.48.04V10.72h.48Z" fill="#f6f6f6"/>
      <path d="M27.98,10.72v47.38c-.12,0-.23,0-.34.02V10.72h.34Z" fill="#f6f6f6"/>
      <path d="M28.45,10.72v47.34c-.06,0-.12,0-.17,0V10.72h.17Z" fill="#f6f6f6"/>
      <path d="M28.79,10.72v47.31h-.12V10.72h.12Z" fill="#f6f6f6"/>
    </g>
    <g>
      <path d="M40.98,19.38v38.37c-1.82-.05-3.72-.05-5.71,0-2.29.05-4.45.15-6.48.29h-.06V24.86l.06-.03s12.19-5.45,12.19-5.45Z" fill="#f6f6f6"/>
      <path d="M41.99,19.37v38.41c-.16,0-.32,0-.48-.02V19.37h.48Z" fill="#f6f6f6"/>
      <path d="M42.97,19.37v38.44c-.16,0-.32,0-.48-.02V19.37h.48Z" fill="#f6f6f6"/>
      <path d="M43.91,19.37v38.49c-.16,0-.32-.02-.48-.03V19.37h.48Z" fill="#f6f6f6"/>
      <path d="M44.63,19.37v38.52c-.11,0-.22,0-.33-.02V19.37h.33Z" fill="#f6f6f6"/>
      <path d="M45.1,19.37v38.55c-.06,0-.11,0-.17,0V19.37h.17Z" fill="#f6f6f6"/>
      <rect x="45.32" y="19.37" width=".12" height="38.57" fill="#f6f6f6"/>
    </g>
    <g>
      <path d="M57.75,47.29c-.43.89-.66,1.88-.66,2.89,0,.72.12,1.45.37,2.15-.46.95-.69,1.96-.69,3.01,0,1.26.35,2.48.98,3.54v.67c-3.44-.71-7.51-1.29-12.25-1.6V6.44L57.75.01v47.28Z" fill="#f6f6f6"/>
      <path d="M58.76,0v42.14c-.23.6-.35,1.23-.35,1.88s.1,1.22.31,1.8c-.16.18-.31.38-.44.58V0s.48,0,.48,0Z" fill="#f6f6f6"/>
      <path d="M59.73,0v40.53c-.18.2-.34.41-.48.63V0h.48Z" fill="#f6f6f6"/>
      <path d="M60.68,34.57c-.04.19-.06.4-.06.6s.02.39.06.57v.39c-.19.22-.35.46-.48.71V0h.48v34.57Z" fill="#f6f6f6"/>
      <path d="M61.4,0v33.13c-.13.14-.24.3-.34.46V0h.34Z" fill="#f6f6f6"/>
      <polygon points="61.87 0 61.87 32.67 61.71 32.81 61.7 32.82 61.7 0 61.87 0" fill="#f6f6f6"/>
      <polygon points="62.21 0 62.21 32.39 62.09 32.49 62.09 0 62.21 0" fill="#f6f6f6"/>
    </g>
  </g>
  <path d="M24.33,10.73v47.72c-4.91.55-8.96,1.37-12.25,2.25v-1.84c1.54-.05,2.96-.9,3.73-2.24.3-.52.49-1.09.56-1.69.49-.37.89-.81,1.19-1.34,1.14-1.97.61-4.45-1.15-5.81.15-1.71-.7-3.39-2.22-4.27-.64-.37-1.37-.57-2.11-.58v-25.77s12.25-6.43,12.25-6.43Z" fill="#f6f6f6"/>
  <path d="M25.34,10.72v47.62c-.16,0-.32.03-.48.05V10.72h.48Z" fill="#f6f6f6"/>
  <path d="M26.31,10.72v47.52c-.16.02-.32.03-.48.05V10.72h.48Z" fill="#f6f6f6"/>
  <path d="M27.26,10.72v47.44c-.16,0-.32.02-.48.04V10.72h.48Z" fill="#f6f6f6"/>
  <path d="M27.98,10.72v47.38c-.12,0-.23,0-.34.02V10.72h.34Z" fill="#f6f6f6"/>
  <path d="M28.45,10.72v47.34c-.06,0-.12,0-.17,0V10.72h.17Z" fill="#f6f6f6"/>
  <path d="M40.98,19.38v38.37c-1.82-.05-3.72-.05-5.71,0-2.29.05-4.45.15-6.48.29h-.12V10.72h.12v14.11s12.19-5.45,12.19-5.45Z" fill="#f6f6f6"/>
  <path d="M41.99,19.37v38.41c-.16,0-.32,0-.48-.02V19.37h.48Z" fill="#f6f6f6"/>
  <path d="M42.97,19.37v38.44c-.16,0-.32,0-.48-.02V19.37h.48Z" fill="#f6f6f6"/>
  <path d="M43.91,19.37v38.49c-.16,0-.32-.02-.48-.03V19.37h.48Z" fill="#f6f6f6"/>
  <path d="M44.63,19.37v38.52c-.11,0-.22,0-.33-.02V19.37h.33Z" fill="#f6f6f6"/>
  <path d="M45.1,19.37v38.55c-.06,0-.11,0-.17,0V19.37h.17Z" fill="#f6f6f6"/>
  <rect x="45.32" y="19.37" width=".12" height="38.57" fill="#f6f6f6"/>
  <path d="M58.72,45.82c-.16.18-.31.38-.44.58V0h.48v42.14c-.23.6-.35,1.23-.35,1.88s.1,1.22.31,1.8Z" fill="#f6f6f6"/>
  <path d="M59.73,40.53c-.18.2-.34.41-.48.63V0h.48v40.53Z" fill="#f6f6f6"/>
  <path d="M57.75,47.29c-.43.89-.66,1.88-.66,2.89,0,.72.12,1.45.37,2.15-.46.95-.69,1.96-.69,3.01,0,1.26.35,2.48.98,3.54v.67c-3.44-.71-7.51-1.29-12.25-1.6V6.44L57.75.01v47.28Z" fill="#f6f6f6"/>
  <path d="M60.68,36.13c-.19.22-.35.46-.48.71V0h.48v34.57c-.04.19-.06.4-.06.6s.02.39.06.57" fill="#f6f6f6"/>
  <path d="M61.4,33l.03.09s-.02.03-.03.04c-.13.14-.24.3-.34.46V0h.34v33Z" fill="#f6f6f6"/>
  <polygon points="61.71 32.81 61.7 32.82 61.7 0 61.87 0 61.87 32.67 61.71 32.81" fill="#f6f6f6"/>
  <polygon points="62.21 0 62.21 32.39 62.09 32.49 62.09 0 62.21 0" fill="#f6f6f6"/>
  <g>
    <path d="M9.84,58.35v3c-.19.05-.37.11-.55.17-.2.06-.4.13-.6.19v-3.8c.16.02.32.03.48.03.04.03.07.05.11.07.13.1.26.18.39.26.05.03.11.06.17.08Z" fill="#f6f6f6"/>
    <path d="M16.7,53.09c-.32.56-.78.98-1.3,1.28,0,.59-.13,1.2-.45,1.75-.62,1.08-1.72,1.69-2.87,1.74-.06,0-.11,0-.17,0-.36,0-.72-.06-1.07-.17-.17-.05-.34-.12-.5-.21-.06-.02-.11-.05-.17-.08-.12-.07-.23-.14-.33-.23-.11-.08-.22-.17-.32-.27-.08,0-.16.03-.24.03h-.02c-.19,0-.38,0-.57-.04-.17,0-.34-.04-.5-.07-.17-.04-.34-.08-.5-.13-.11-.03-.22-.06-.32-.1-.67.66-1.57,1.02-2.48,1.02-.59,0-1.18-.15-1.73-.46-1.67-.97-2.25-3.11-1.28-4.78.13-.23.29-.44.46-.63-.53-1.02-.55-2.28.07-3.36.2-.33.45-.61.72-.85-.33-.93-.28-2,.25-2.92.65-1.13,1.83-1.75,3.03-1.75.6,0,1.2.15,1.75.47.5.29.89.68,1.18,1.14.01.02.03.04.04.06.27-.09.55-.14.84-.16.54-.3,1.14-.46,1.75-.46.04,0,.07,0,.11,0,.55,0,1.1.15,1.61.45,1.39.8,2.01,2.41,1.63,3.89.03.02.07.03.1.04,1.67.97,2.24,3.11,1.28,4.78Z" fill="#f6f6f6"/>
  </g>
  <g>
    <path d="M73.68,66.9c-.34.44-.96.52-1.4.19-.05-.04-2.59-1.92-8.24-3.77-.15-.05-.31-.1-.46-.15-.44-.14-.9-.28-1.37-.42-.04-.01-.08-.02-.12-.03-.07-.03-.15-.05-.22-.06-.06-.02-.11-.04-.17-.05-.1-.03-.2-.06-.3-.09-.11-.03-.23-.06-.34-.09-.13-.04-.25-.07-.38-.1-.16-.04-.32-.08-.48-.12-.15-.05-.31-.08-.47-.12s-.32-.08-.48-.12c-.16-.04-.32-.08-.49-.12-.16-.03-.32-.07-.48-.1-.17-.04-.35-.08-.53-.12-3.41-.73-7.48-1.35-12.25-1.67-.02,0-.04,0-.06,0h-.12c-.07,0-.15,0-.22-.02-.06,0-.11,0-.17,0-.1,0-.2,0-.3-.02-.11,0-.22,0-.33,0-.13,0-.26-.02-.39-.02-.16,0-.32-.02-.48-.03-.15,0-.3,0-.46-.02-.16,0-.32,0-.48-.02-.16,0-.33,0-.5-.02-.16,0-.32,0-.48,0-.18,0-.35-.02-.53-.02-1.8-.04-3.69-.05-5.67,0-2.3.05-4.48.15-6.52.31h-.06s-.04,0-.06,0c-.07,0-.15,0-.22,0-.06,0-.11,0-.17.02-.1,0-.2,0-.3.02-.12,0-.23.02-.34.03-.13,0-.25.02-.38.03-.16.02-.32.03-.48.05-.16,0-.31.02-.47.04s-.32.03-.48.05c-.16,0-.33.03-.49.05s-.32.03-.48.06c-.18,0-.35.03-.53.05-4.95.58-9.01,1.43-12.25,2.34-.43.12-.84.24-1.24.36-.09.02-.18.05-.27.08-6.18,1.88-8.93,3.83-8.98,3.87-.17.13-.38.19-.58.19-.31,0-.62-.14-.81-.41-.33-.44-.23-1.06.21-1.39.19-.14,2.43-1.74,7.28-3.45.16-.06.33-.12.5-.18.16-.06.33-.11.5-.17.2-.06.4-.13.6-.19.18-.06.36-.12.55-.17.16-.06.33-.11.5-.16.16-.05.33-.1.5-.15.4-.11.81-.23,1.24-.34,3.29-.88,7.34-1.7,12.25-2.25.17-.02.35-.04.53-.06.16-.02.32-.04.48-.05.16-.02.33-.04.49-.05.16-.02.32-.03.48-.05.16,0,.31-.03.47-.04.16-.02.32-.03.48-.04.12-.02.25-.03.38-.04.11,0,.22,0,.34-.02.1,0,.2-.02.3-.03.05,0,.11,0,.17,0,.07,0,.14,0,.22-.02h.12c2.03-.14,4.19-.24,6.48-.29,1.99-.04,3.89-.04,5.71,0,.18,0,.36,0,.53,0,.16,0,.32,0,.48.02h.5c.16,0,.32.02.48.02.16,0,.31.02.46.02.16,0,.32.02.48.03.13,0,.26,0,.39,0,.11,0,.22.02.33.02.1,0,.2.02.3.02.06,0,.11,0,.17,0,.07,0,.15,0,.22.02h.12s.04,0,.06,0c4.74.31,8.81.89,12.25,1.6.18.04.35.08.53.11.16.04.32.07.48.11.12.03.24.05.36.08.04,0,.09.02.13.03.16.04.32.08.48.11.14.04.28.07.42.1-.15-.09-.29-.21-.42-.33-.17-.16-.34-.32-.48-.5-.19-.2-.35-.42-.49-.65-.19-.28-.35-.57-.48-.88-.33-.75-.51-1.56-.51-2.39s.18-1.66.51-2.42c.05-.11.11-.22.16-.33l.11-.2-.08-.2c-.08-.2-.14-.41-.19-.62-.13-.46-.19-.92-.19-1.39s.06-.97.19-1.44c.11-.43.27-.84.48-1.22.14-.27.3-.53.49-.77.13-.17.26-.33.41-.48l.07-.07.16-.17-.13-.3s-.02-.05-.03-.08c-.21-.52-.32-1.07-.32-1.63s.11-1.11.32-1.61c.12-.3.27-.59.47-.85.13-.21.3-.4.48-.59.1-.09.2-.19.31-.28l.07-.06.24-.2-.19-.36s-.04-.07-.05-.11c-.21-.42-.31-.85-.31-1.29s.11-.91.31-1.31c.09-.19.2-.37.34-.54.08-.1.17-.21.27-.3l.03-.03.17-.16.04-.04-.04-.1-.09-.22c-.03-.08-.06-.16-.08-.24-.05-.18-.08-.37-.08-.56,0-.2.03-.39.08-.57.04-.14.1-.28.17-.41.06-.12.13-.23.22-.33.03-.05.07-.1.12-.14.03-.04.07-.07.11-.11l1.56-1.34.61.63.87.89c.34.39.52.87.52,1.38,0,.27-.06.54-.16.8l-.13.32.24.23c.59.57.92,1.34.92,2.15,0,.48-.12.95-.36,1.4l-.19.36.31.26c1.01.84,1.58,2.05,1.58,3.33,0,.59-.12,1.16-.35,1.71l-.13.3.23.24c1.01,1.06,1.57,2.45,1.57,3.91,0,.68-.13,1.35-.38,2.01l-.08.21.11.19c.44.86.67,1.79.67,2.75,0,1.94-.96,3.77-2.56,4.89l-1.51.92-.58.36c.21.07.42.15.62.22h.01c.2.07.4.14.59.21,4.78,1.75,7,3.41,7.2,3.56.44.34.52.97.18,1.4h0Z" fill="#f6f6f6"/>
    <path d="M61.39,32.97v.03-.03s0,0,0,0Z" fill="#f6f6f6"/>
  </g>
</svg>