<?xml version="1.0" encoding="UTF-8"?>
<svg id="a" data-name="Garden View" xmlns="http://www.w3.org/2000/svg" viewBox="0 0 126.08 107.12">
  <path d="M20.34,95.74h.18c.38-.12.77-.23,1.15-.34-.44.11-.89.22-1.33.34Z" fill="none"/>
  <path d="M84.64,93.65c.31.09.62.18.93.27.12-.09.25-.18.38-.27h-1.31Z" fill="none"/>
  <path d="M59.42,11.35c0,1.2.14,2.35.37,3.42,1.15-.08,2.31-.14,3.49-.14.77,0,1.54.02,2.3.06V2.06c-.76-.03-1.53-.06-2.3-.06h-.08c-2.22,1.51-3.79,5.12-3.79,9.34h.01Z" fill="#fafafa"/>
  <path d="M114.42,58.99c-1.07,0-2.08.12-3.04.31.09,1.18.15,2.37.15,3.57,0,.77-.02,1.53-.06,2.28h12.52c.02-.64.04-1.28.05-1.92-1.3-2.46-5.11-4.24-9.62-4.24Z" fill="#fafafa"/>
  <path d="M11.78,66.35c1.19,0,2.31-.14,3.37-.37-.07-1.03-.11-2.06-.11-3.11,0-.9.03-1.8.08-2.68H2.59c-.04.83-.06,1.66-.06,2.5,1.55,2.16,5.11,3.67,9.26,3.67h0Z" fill="#fafafa"/>
  <path d="M113.63,72.4c-1.01-.27-2-.43-2.96-.5-.37,1.94-.85,3.84-1.45,5.7l12.09,3.24c.19-.6.35-1.21.52-1.82-.6-2.72-3.83-5.45-8.2-6.62h0Z" fill="#fafafa"/>
  <path d="M12.57,52.94c1.16.31,2.3.48,3.39.53.38-1.91.88-3.78,1.48-5.6l-12.15-3.25c-.25.8-.48,1.61-.7,2.43.96,2.47,3.99,4.83,7.98,5.9h0Z" fill="#fafafa"/>
  <path d="M12.07,29.75c-1.68,2.91.87,7.53,5.7,10.32.72.41,1.44.75,2.17,1.04.9-1.79,1.9-3.51,3.01-5.17l-10.83-6.25s-.03.04-.04.06h0Z" fill="#fafafa"/>
  <path d="M24.21,28.98c.87.87,1.8,1.6,2.75,2.2,1.27-1.45,2.61-2.83,4.04-4.12l-8.91-8.9c-.63.58-1.24,1.16-1.84,1.77-.39,2.62,1.06,6.16,3.96,9.06h0Z" fill="#fafafa"/>
  <path d="M34.26,20.06c.61,1.06,1.32,2,2.07,2.82,1.59-1.08,3.26-2.05,4.98-2.93l-6.31-10.93c-.75.39-1.48.81-2.21,1.23-1.07,2.43-.6,6.24,1.47,9.82h0Z" fill="#fafafa"/>
  <path d="M46.27,14.05c.31,1.17.75,2.25,1.26,3.23,1.81-.63,3.67-1.15,5.57-1.56l-3.27-12.19c-.8.18-1.59.37-2.38.59-1.71,2.05-2.26,5.9-1.18,9.93Z" fill="#fafafa"/>
  <path d="M72.83,12.14c-.31,1.14-.47,2.26-.52,3.34,1.92.36,3.8.84,5.63,1.42l3.27-12.2c-.73-.23-1.47-.43-2.21-.63-2.57.84-5.06,3.94-6.17,8.07Z" fill="#fafafa"/>
  <path d="M85.58,16.38c-.58,1-1.02,2.02-1.35,3.03,1.75.85,3.44,1.81,5.07,2.86l6.3-10.92c-.63-.4-1.27-.79-1.92-1.16-2.71.11-5.95,2.47-8.1,6.2h0Z" fill="#fafafa"/>
  <path d="M96.79,23.78c-.81.81-1.49,1.67-2.06,2.55,1.47,1.27,2.87,2.61,4.18,4.04l8.9-8.9c-.49-.53-.98-1.05-1.49-1.56-2.65-.65-6.44.79-9.52,3.87h-.01Z" fill="#fafafa"/>
  <path d="M105.71,33.82c-.97.56-1.82,1.2-2.58,1.88,1.09,1.6,2.09,3.27,2.99,5l10.89-6.29c-.32-.61-.66-1.22-1.01-1.82-2.38-1.37-6.47-.98-10.29,1.22h0Z" fill="#fafafa"/>
  <path d="M14.48,79.51c1.12-.3,2.16-.72,3.11-1.2-.62-1.82-1.14-3.69-1.54-5.6l-12.08,3.24c.18.8.36,1.6.57,2.39,2.05,1.71,5.9,2.25,9.93,1.18h0Z" fill="#fafafa"/>
  <path d="M111.73,45.83c-1.05.28-2.01.67-2.91,1.11.64,1.83,1.17,3.7,1.59,5.62l12.12-3.25c-.14-.64-.29-1.27-.45-1.9-1.9-2.02-6.03-2.74-10.36-1.58h.01Z" fill="#fafafa"/>
  <path d="M10.28,92.43c-1.18-2.1-2.24-4.28-3.17-6.52-1.01-2.45-1.87-4.98-2.56-7.57-.21-.79-.4-1.59-.57-2.39-.94-4.24-1.45-8.65-1.45-13.17v-.09c0-.84.03-1.67.06-2.5.19-4.53.88-8.93,2.01-13.15.22-.81.45-1.63.7-2.43,2.96-9.42,8.15-17.86,14.95-24.69.6-.6,1.22-1.19,1.84-1.77,3.26-3.01,6.84-5.66,10.7-7.9.73-.42,1.46-.83,2.21-1.23,3.92-2.07,8.09-3.72,12.45-4.9.79-.21,1.58-.41,2.38-.59,4.31-.98,8.79-1.51,13.39-1.52h.08c.77,0,1.54.03,2.3.06,4.62.17,9.11.86,13.41,2.01.74.2,1.48.4,2.21.63,4.39,1.36,8.57,3.21,12.47,5.48.65.38,1.29.76,1.92,1.16,3.89,2.45,7.49,5.32,10.72,8.56.51.51,1,1.04,1.49,1.56,3.13,3.38,5.88,7.11,8.19,11.13.34.6.68,1.2,1.01,1.82,2.16,4.08,3.88,8.43,5.08,13,.16.63.31,1.27.45,1.9.98,4.33,1.52,8.83,1.52,13.45,0,.15,0,.31,0,.46,0,.64-.02,1.28-.05,1.92-.19,4.78-.93,9.42-2.16,13.86-.17.61-.33,1.22-.52,1.82-.54,1.72-1.16,3.41-1.84,5.07-.78,1.89-1.65,3.73-2.61,5.52,1.1-.61,2.19-1.29,3.25-2.02.54-1.15,1.04-2.32,1.51-3.5,2.85-7.16,4.44-14.96,4.44-23.13C126.08,28.16,97.92,0,63.31,0S.52,28.16.52,62.77c0,8.17,1.59,15.97,4.44,23.13,1.07,2.68,2.31,5.27,3.72,7.75q.94,1.65,0,0c.53-.42,1.06-.83,1.6-1.23h0Z" fill="#f6f6f6"/>
  <path d="M110.49,85.84c-.38-.26-.77-.52-1.18-.76-.89-.52-1.8-.92-2.7-1.24-.86,1.77-1.84,3.48-2.9,5.12l8.01,4.62.08.05c1.2-.44,2.39-.95,3.55-1.53-.52-2.14-2.27-4.47-4.86-6.27h0Z" fill="#fafafa"/>
  <path d="M61.54,63.53c-.12-.25-.19-.52-.19-.81,0-.13.01-.26.04-.39l-.48-.46H25.06c0,.33-.03.67-.03,1s.02.67.03,1h36.16s.32-.34.32-.34Z" fill="#f6f6f6"/>
  <path d="M65.14,62.66v.06c0,.14-.02.27-.04.4l.78.75h35.62c0-.33.03-.67.03-1s-.02-.67-.03-1h-35.61l-.76.79h.01Z" fill="#f6f6f6"/>
  <path d="M99.66,94.44c.17.11-.16-.11.01,0,.24-.27.48-.54.71-.82,1.22-1.47,2.35-3.02,3.39-4.62,1.06-1.64,2.04-3.35,2.9-5.12.99-2.03,1.83-4.14,2.53-6.31.6-1.85,1.08-3.75,1.45-5.7.42-2.2.69-4.45.8-6.75.04-.76.06-1.52.06-2.28,0-1.2-.06-2.39-.15-3.57-.17-2.29-.49-4.54-.97-6.74-.42-1.92-.95-3.8-1.59-5.62-.76-2.15-1.66-4.24-2.7-6.24-.9-1.73-1.89-3.4-2.99-5-1.28-1.87-2.69-3.66-4.22-5.33-1.31-1.43-2.71-2.78-4.18-4.04-1.71-1.48-3.53-2.83-5.44-4.06-1.63-1.05-3.31-2.01-5.07-2.86-2.02-.98-4.12-1.81-6.29-2.51-1.83-.58-3.71-1.06-5.63-1.42-2.19-.42-4.44-.69-6.72-.8-.76-.04-1.53-.06-2.3-.06-1.17,0-2.33.06-3.49.14-2.28.16-4.52.48-6.71.95-1.9.41-3.76.94-5.57,1.56-2.15.74-4.22,1.64-6.22,2.66-1.72.88-3.38,1.86-4.98,2.93-1.87,1.27-3.65,2.66-5.33,4.18-1.43,1.29-2.78,2.67-4.04,4.12-1.35,1.55-2.62,3.18-3.76,4.89-1.11,1.65-2.11,3.38-3.01,5.16-1.07,2.13-1.99,4.34-2.74,6.63-.6,1.82-1.1,3.69-1.48,5.6-.43,2.19-.72,4.43-.85,6.72-.05.89-.08,1.78-.08,2.68,0,1.05.04,2.08.11,3.11.15,2.29.44,4.53.9,6.72.4,1.91.92,3.78,1.54,5.6.89,2.64,2,5.19,3.32,7.6.05.09.1.17.15.26,3.09-1.37,6.32-2.48,9.65-3.29-3.42-5.56-5.46-12.05-5.64-19,0-.33-.03-.67-.03-1s.02-.67.03-1c.25-9.55,4-18.24,10.03-24.82l-6.14-5.9,1.39-1.44,6.14,5.9c6.68-6.58,15.77-10.71,25.8-10.97v-5.03h2v5.03c9.54.25,18.23,4,24.81,10.02l4.7-4.93,1.45,1.38-4.71,4.94c6.58,6.69,10.72,15.77,10.98,25.81,0,.33.03.67.03,1s-.02.67-.03,1c-.21,8.26-3.05,15.87-7.71,22.03-.7.92-1.43,1.81-2.21,2.67l1.58,1.51-1.39,1.44-1.58-1.51c-1.33,1.31-2.75,2.53-4.25,3.64-.12.09-.25.18-.38.27,3.17.89,6.39,1.52,9.63,1.82l3.07.06,1.41-1.33v.04Z" fill="#f6f6f6" stroke="#f6f6f6" stroke-miterlimit="10"/>
  <path d="M63.71,64.55c-.14.03-.28.06-.43.06l-.99,1.04v18.84c.67.23,1.34.47,2,.72v-20.11l-.58-.56h0Z" fill="#f6f6f6"/>
  <path d="M62.78,60.89c.15-.04.3-.06.47-.06.26,0,.51.05.74.15l.3-.31V19.62h-2v40.79l.5.48h-.01Z" fill="#f6f6f6"/>
  <path d="M63.99,60.93c.66.28,1.13.93,1.15,1.69l.76-.79,24.63-25.81,4.71-4.94-1.45-1.38-4.7,4.93-24.81,25.99-.3.31h0Z" fill="#f6f6f6"/>
  <path d="M63.28,64.61h-.03c-.75,0-1.4-.44-1.71-1.08l-.32.34-16.66,17.45c.89.01,1.77.06,2.66.11l15.07-15.78.99-1.04Z" fill="#f6f6f6"/>
  <path d="M65.88,63.87l-.78-.75c-.15.71-.7,1.26-1.39,1.44l.58.56,21.64,20.8,4.27,4.11,1.58,1.51,1.39-1.44-1.58-1.51-2.77-2.67-22.93-22.03v-.02Z" fill="#f6f6f6"/>
  <path d="M61.39,62.33c.15-.71.69-1.26,1.39-1.44l-.5-.48-25.8-24.79-6.14-5.9-1.39,1.44,6.14,5.9,25.82,24.82.48.46h0Z" fill="#f6f6f6"/>
  <path d="M121.36,91.15c-3.57,2.94-7.43,5.26-11.53,6.73-4.94,1.8-10.11,2.41-15.23,2.08-5.13-.33-10.21-1.52-15.15-3.26-2.47-.87-4.93-1.84-7.33-2.96l-1.81-.83-1.81-.88c-1.26-.63-2.65-1.29-4.01-1.87-2.75-1.14-5.58-2.13-8.48-2.89-2.9-.73-5.86-1.3-8.85-1.58-5.97-.59-12.03-.18-17.8,1.16-5.77,1.35-11.26,3.59-16.24,6.55-1.94,1.16-3.81,2.42-5.58,3.79-.5.38-1,.77-1.48,1.18-2.21,1.82-4.28,3.81-6.06,6.02,4.84-2.91,9.88-5.21,15-7.01,1.78-.62,3.56-1.17,5.36-1.65.44-.12.89-.23,1.33-.34,1.04-.31,2.09-.6,3.15-.84,5.77-1.35,11.83-1.75,17.8-1.16,2.99.28,5.95.84,8.85,1.58,2.9.76,5.73,1.75,8.48,2.89,1.36.58,2.75,1.24,4.01,1.87l1.81.88,1.81.83c.64.3,1.29.56,1.93.83,2.4.97,4.84,1.85,7.35,2.57,5.68,1.62,11.7,2.56,17.75,2.2,6.03-.34,12.07-2.04,17.16-5.18,2.75-1.69,5.2-3.77,7.29-6.12.6-.67,1.17-1.37,1.7-2.08,1.05-1.4,1.99-2.87,2.78-4.4-.72.66-1.45,1.29-2.19,1.9h0Z" fill="#eef5fc"/>
</svg>