<?xml version="1.0" encoding="UTF-8"?>
<svg id="a" data-name="Layer 1" xmlns="http://www.w3.org/2000/svg" viewBox="0 0 310.01 239.23">
  <path d="M310.01,235.73c-.36-.55-1-.85-2.11-.85-3.11,0-11.18,0-20.19-2.8-13.35-4.35-15.53-21.75-16.78-32.94L250.11,8.39c-.62-5.9-1.55-8.39-3.73-8.39s-3.42,2.18-4.66,4.97l-91.34,195.11L55.31,4.66c-1.55-3.42-2.8-4.66-4.66-4.66s-3.11,2.18-3.42,5.59l-22.37,202.56c-1.24,11.81-2.17,23.92-12.43,25.79-4.66.93-6.83.93-9.32.93-1.55,0-3.11.62-3.11,1.55,0,2.17,2.18,2.8,5.28,2.8,8.39,0,23.3-.93,26.1-.93,2.48,0,17.4.93,28.89.93,3.73,0,5.59-.62,5.59-2.8,0-.93-1.24-1.55-2.48-1.55-1.87,0-6.53-.31-11.81-1.55-4.66-.93-8.08-4.97-8.08-9.64,0-5.28,0-10.87.31-15.84l12.43-144.16h1.24c3.42,8.39,38.21,82.95,41.01,88.55,1.55,3.11,28.27,56.85,36.35,72.08,5.9,11.18,7.46,14.29,9.64,14.29,2.79,0,3.73-2.8,10.25-16.47L230.85,60.59h.93l14.91,160.31c.62,5.59.32,10.87-1.24,11.18s-2.18.93-2.18,2.17c0,1.55,1.55,2.49,8.7,3.11,11.49.93,45.05,1.87,51.88,1.87,2.65,0,4.78-.5,5.82-1.44-.13-.23-.25-.45-.25-.74,0-.52.25-.96.59-1.32h0Z" fill="#5788e5"/>
</svg>