<svg xmlns="http://www.w3.org/2000/svg" viewBox="0 0 18 18">
  <path fill="#9898cc" stroke-width="0px" d="M16.95,18c-2.08,0-4.14-.45-6.18-1.36-2.03-.91-3.88-2.2-5.55-3.86s-2.95-3.52-3.86-5.55C.45,5.19,0,3.13,0,1.05c0-.3.1-.55.3-.75s.45-.3.75-.3h4.05c.23,0,.44.08.63.24s.29.35.33.56l.65,3.5c.03.27.03.49-.03.68s-.14.34-.28.48l-2.43,2.45c.33.62.73,1.21,1.19,1.79s.96,1.13,1.51,1.66c.52.52,1.06,1,1.63,1.44s1.17.85,1.8,1.21l2.35-2.35c.15-.15.35-.26.59-.34s.48-.1.71-.06l3.45.7c.23.07.43.19.58.36s.23.37.23.59v4.05c0,.3-.1.55-.3.75s-.45.3-.75.3ZM3.03,6l1.65-1.65-.43-2.35h-2.23c.08.68.2,1.36.35,2.03s.37,1.33.65,1.98ZM11.98,14.95c.65.28,1.31.51,1.99.68s1.35.28,2.04.33v-2.2l-2.35-.48-1.68,1.68Z"/>
</svg>