<svg fill="currentColor" xmlns="http://www.w3.org/2000/svg" viewBox="0 0 50 50">
    <path d="M25,19.05A6,6,0,1,0,31,25,5.95,5.95,0,0,0,25,19.05Zm13.92-4.58a6,6,0,0,0-3.4-3.39c-2.34-.93-7.92-.72-10.52-.72s-8.18-.22-10.53.72a6,6,0,0,0-3.39,3.39c-.92,2.34-.72,7.93-.72,10.53s-.2,8.18.72,10.53a6.06,6.06,0,0,0,3.4,3.39c2.34.93,7.92.72,10.52.72s8.18.21,10.53-.72a6,6,0,0,0,3.39-3.39c.93-2.35.72-7.93.72-10.53s.21-8.18-.72-10.53ZM25,34.15A9.15,9.15,0,1,1,34.15,25,9.15,9.15,0,0,1,25,34.15ZM34.53,17.6a2.14,2.14,0,1,1,2.13-2.14h0a2.12,2.12,0,0,1-2.12,2.14ZM44.64,0H5.36A5.36,5.36,0,0,0,0,5.36V44.64A5.36,5.36,0,0,0,5.36,50H44.64A5.36,5.36,0,0,0,50,44.64V5.36A5.36,5.36,0,0,0,44.64,0ZM42.73,32.37c-.14,2.86-.79,5.39-2.88,7.47s-4.62,2.75-7.48,2.89-11.79.17-14.73,0-5.39-.8-7.48-2.89-2.75-4.62-2.89-7.47-.16-11.79,0-14.74.79-5.39,2.89-7.47,4.63-2.74,7.48-2.88,11.78-.17,14.73,0,5.39.8,7.48,2.88a10.63,10.63,0,0,1,2.88,7.49C42.9,20.58,42.9,29.42,42.73,32.37Z"/>
</svg>