<svg fill="currentColor" xmlns="http://www.w3.org/2000/svg" viewBox="0 0 50.01 50">
    <path d="M25,12.18A12.82,12.82,0,1,0,37.83,25,12.8,12.8,0,0,0,25,12.18Zm0,21.15A8.33,8.33,0,1,1,33.35,25,8.34,8.34,0,0,1,25,33.33ZM41.34,11.66a3,3,0,1,1-3-3A3,3,0,0,1,41.34,11.66Zm8.5,3c-.19-4-1.11-7.55-4-10.48S39.33.38,35.32.18s-16.5-.24-20.63,0-7.54,1.1-10.48,4S.38,10.67.18,14.68s-.24,16.5,0,20.63,1.1,7.55,4,10.48,6.48,3.83,10.48,4,16.5.24,20.63,0,7.55-1.1,10.48-4,3.83-6.48,4-10.48.23-16.49,0-20.62ZM44.5,39.74a8.41,8.41,0,0,1-4.75,4.75c-3.29,1.31-11.1,1-14.74,1s-11.46.29-14.74-1a8.44,8.44,0,0,1-4.75-4.75c-1.31-3.29-1-11.1-1-14.74s-.29-11.46,1-14.74a8.41,8.41,0,0,1,4.75-4.75c3.29-1.31,11.1-1,14.74-1s11.46-.29,14.74,1a8.41,8.41,0,0,1,4.75,4.75c1.31,3.29,1,11.1,1,14.74S45.81,36.46,44.5,39.74Z"/>
</svg>