<?xml version="1.0" encoding="UTF-8"?>
<svg id="a" data-name="Garden View" xmlns="http://www.w3.org/2000/svg" viewBox="0 0 315.15 243.58">
  <path d="M292.47,211.29h-106.51c-.64-1.16-1.4-2.23-2.32-3.15h0s-.03-.04-.05-.05c-5.01-5.11-11.45-5.91-15.79-4.95l-1.87.41.84,1.72c2.19,4.44,7.71,8.96,15.1,9.03.04,0,.09,0,.13,0,.11,0,.21-.02.32-.02.04,0,.07.01.11.01h1.65c2.13,5.14,2.04,11.88,1.88,14.62-2.91.17-10.34.3-15.6-2.33,0-.04.01-.08.02-.12.11-.45.19-.89.25-1.33.02-.13.03-.25.05-.38.05-.48.09-.95.09-1.41,0-7.16-4.04-12.23-7.82-14.59l-1.62-1.01-.6,1.82c-1.55,4.71-.77,11.79,4.46,17.02.33.33.7.64,1.08.95.08.07.17.13.26.2.08.06.16.13.25.19-2.11,5.21-6.99,9.93-9.05,11.76-2.03-1.81-6.81-6.44-8.97-11.57.06-.04.11-.08.16-.12.22-.16.44-.32.64-.49.08-.07.17-.13.25-.2.27-.23.54-.47.78-.71,5.31-5.31,6.03-12.46,4.4-17.2l-.6-1.74-1.58.94c-3.75,2.22-8.13,7.42-8.13,14.76,0,.49.04.98.1,1.48.02.13.03.25.05.38.07.48.16.97.29,1.47,0,.02,0,.04.01.06-5.23,2.47-12.45,2.35-15.3,2.18-.16-2.74-.26-9.48,1.88-14.62h.76c.13,0,.25-.02.37-.05.32.02.64.06.95.06.04,0,.09,0,.13,0,7.39-.07,12.91-4.59,15.1-9.03l.85-1.72-1.87-.41c-4.36-.96-10.79-.16-15.8,4.95-.05.05-.09.11-.14.16-.88.9-1.61,1.93-2.22,3.05H22.44c-.83,0-1.5.67-1.5,1.5s.67,1.5,1.5,1.5h106.07c-2.49,7.11-1.62,15.7-1.57,16.18l.13,1.2,1.2.13c.18.02,1.88.2,4.32.2,3.67,0,9.03-.42,13.47-2.4l.03.1.08-.05c3.15,7.09,10.29,12.91,10.62,13.17l.94.76.94-.75c.33-.26,7.57-6.12,10.68-13.3l.09.05.04-.11c4.49,2.09,9.99,2.52,13.74,2.52,2.44,0,4.13-.18,4.31-.2l1.2-.13.13-1.2c.05-.48.92-9.07-1.57-16.18h105.18c.83,0,1.5-.67,1.5-1.5s-.67-1.5-1.5-1.5ZM145.17,205.79c-2.23,2.92-6.21,5.45-11.28,5.51-.16,0-.31,0-.47,0,.29-.4.6-.77.93-1.11,3.37-3.44,7.48-4.53,10.83-4.39ZM147.78,221.72c.01-.1.02-.21.03-.31.07-.5.15-.99.27-1.46.02-.09.05-.18.07-.27.12-.45.25-.88.4-1.3.02-.04.03-.09.04-.13.17-.44.35-.86.55-1.27.04-.09.09-.18.13-.26.2-.39.42-.78.65-1.14.04-.06.08-.11.11-.17.22-.33.45-.66.68-.96.04-.05.07-.1.11-.14.26-.32.52-.62.79-.91.06-.06.11-.12.17-.18.28-.28.56-.55.84-.79,0,0,0,0,.01,0,0,.06.02.12.03.18.01.1.02.19.03.29.02.17.03.34.04.52,0,.1.01.19.02.29,0,.2.01.4.01.6,0,.08,0,.15,0,.22,0,.28-.02.56-.04.84,0,.04,0,.08-.01.11-.02.25-.05.49-.08.74-.01.09-.03.18-.04.28-.03.2-.07.39-.11.59-.02.1-.04.21-.07.31-.04.19-.09.38-.14.57-.03.1-.06.21-.09.31-.06.21-.13.41-.2.62-.03.08-.06.17-.09.25-.11.29-.22.58-.35.87,0,.02-.02.05-.03.07-.12.26-.25.53-.38.79-.05.09-.1.19-.15.28-.11.19-.22.38-.33.57-.06.1-.13.21-.2.31-.12.18-.24.36-.37.53-.07.1-.15.21-.22.31-.14.18-.29.37-.44.55-.07.09-.14.17-.21.26-.23.26-.47.52-.72.78-.19.19-.43.37-.65.56-.03-.18-.05-.36-.07-.54-.01-.09-.03-.18-.04-.27-.03-.29-.04-.58-.04-.86,0-.56.04-1.1.1-1.63ZM167.67,224.66s0,.07-.01.1c-.11-.1-.24-.19-.34-.3-.25-.25-.49-.51-.71-.77-.07-.08-.14-.17-.21-.25-.15-.18-.3-.36-.44-.55-.07-.1-.14-.2-.22-.29-.13-.18-.25-.36-.37-.54-.06-.1-.13-.2-.19-.3-.12-.2-.24-.4-.35-.6-.04-.08-.09-.16-.14-.24-.15-.28-.29-.56-.42-.85-.01-.03-.03-.06-.04-.1-.11-.25-.22-.51-.31-.76-.04-.09-.07-.18-.1-.28-.07-.2-.14-.4-.2-.59-.03-.1-.06-.2-.09-.31-.05-.19-.1-.38-.15-.58-.02-.1-.05-.2-.07-.3-.05-.21-.09-.43-.12-.64-.01-.07-.03-.14-.04-.21-.04-.28-.08-.57-.1-.85,0-.05,0-.11-.01-.16-.02-.23-.03-.45-.04-.67,0-.09,0-.18,0-.27,0-.18,0-.37,0-.55,0-.1,0-.19.01-.29,0-.18.02-.35.04-.53,0-.09.02-.18.03-.26,0-.04.01-.08.02-.12,0,0,.01.01.02.02.27.24.53.51.79.78.06.06.11.12.17.18.26.28.5.58.75.9.05.06.09.12.13.18.22.3.44.62.65.95.03.04.05.08.08.12.22.36.42.74.61,1.12.04.08.08.17.12.26.18.4.36.81.51,1.24.02.05.03.11.05.16.14.4.26.82.36,1.24.02.08.04.16.06.25.1.46.18.93.24,1.42.01.1.02.21.03.31.05.51.09,1.03.09,1.57,0,.42-.04.86-.1,1.31ZM170.62,205.79c3.32-.14,7.46.96,10.83,4.39.33.33.64.7.93,1.11-.16,0-.31,0-.47,0-5.07-.05-9.05-2.58-11.28-5.51Z" fill="#7c7d81"/>
  <g>
    <path d="M59.87,170.71v2c-.52-.48-1.02-.81-1.51-.99-.49-.18-.95-.27-1.37-.27-.56,0-1.03.13-1.39.41-.37.27-.55.62-.55,1.05s.17.82.5,1.12c.33.31.73.6,1.21.87.14.08.3.17.46.26s.33.18.49.28c.66.38,1.27.85,1.82,1.4.55.55.83,1.31.83,2.29s-.32,1.75-.97,2.38c-.65.62-1.47.94-2.46.94-.66,0-1.27-.09-1.83-.27-.56-.18-1.09-.46-1.61-.85v-2.25c.46.59.96,1.04,1.51,1.34.55.31,1.13.46,1.73.46.56,0,1-.12,1.32-.37.32-.25.52-.52.62-.82.01-.06.02-.12.04-.18.01-.06.02-.12.02-.18,0-.54-.2-.99-.61-1.36s-.88-.72-1.42-1.05c-.11-.06-.21-.12-.31-.19-.1-.07-.2-.13-.3-.19-.67-.41-1.28-.87-1.84-1.38-.55-.51-.83-1.18-.83-2.02,0-1,.34-1.79,1.02-2.39.68-.59,1.58-.89,2.71-.89.47,0,.93.07,1.4.22.46.14.91.36,1.34.65v-.02Z" fill="#7c7d81"/>
    <path d="M70.87,171.59h-5.2v3.71h5.02v1.58h-5.02v3.82h5.36v1.58h-7.13v-12.28h6.97v1.58Z" fill="#7c7d81"/>
    <path d="M85.88,182.28h-1.51l-8.21-9.45v9.45h-1.66v-12.28h1.4l8.32,9.5v-9.5h1.66v12.28Z" fill="#7c7d81"/>
    <path d="M91.98,182.28h-1.76v-12.28h1.76v12.28Z" fill="#7c7d81"/>
    <path d="M95.78,176.14c0-1.69.6-3.16,1.8-4.41,1.2-1.25,2.8-1.87,4.79-1.87s3.64.62,4.82,1.86c1.19,1.24,1.78,2.72,1.78,4.44s-.59,3.12-1.76,4.38c-1.18,1.27-2.8,1.9-4.88,1.9s-3.6-.63-4.78-1.89c-1.18-1.26-1.77-2.72-1.77-4.39v-.02ZM97.6,176.14c0,1.36.45,2.48,1.36,3.37.91.89,2.04,1.33,3.41,1.33s2.52-.44,3.43-1.33c.91-.89,1.36-2,1.36-3.35s-.45-2.47-1.36-3.36c-.91-.88-2.05-1.32-3.43-1.32s-2.51.44-3.41,1.32c-.91.88-1.36,2-1.36,3.36v-.02Z" fill="#7c7d81"/>
    <path d="M115.88,170c1.25.01,2.23.32,2.95.94.72.61,1.08,1.45,1.08,2.52,0,.71-.18,1.32-.53,1.84-.35.52-.86.91-1.52,1.17.35.23.66.5.95.81.28.31.55.67.82,1.06.16.23.31.47.48.73.16.26.33.53.5.8.07.12.14.23.21.34.07.11.14.21.21.31.01.02.03.05.05.08.02.03.04.06.06.08.14.22.31.45.49.69.18.25.4.55.67.91h-2.11l-1.62-2.52c-.68-1.06-1.24-1.77-1.66-2.13-.42-.37-.82-.57-1.19-.62-.07-.01-.14-.02-.21-.03-.07,0-.13,0-.21,0h-.74v5.31h-1.76v-12.28h3.1ZM114.55,175.37h1.13c.94.01,1.57-.18,1.91-.58.34-.4.5-.85.5-1.36v-.04c-.01-.58-.2-1.04-.58-1.37-.37-.33-.98-.5-1.84-.5h-1.13v3.85Z" fill="#7c7d81"/>
    <path d="M131.08,170.71v2c-.52-.48-1.02-.81-1.51-.99-.49-.18-.95-.27-1.37-.27-.56,0-1.03.13-1.39.41-.37.27-.55.62-.55,1.05s.17.82.5,1.12c.33.31.73.6,1.21.87.14.08.3.17.46.26s.33.18.5.28c.66.38,1.27.85,1.82,1.4.55.55.83,1.31.83,2.29s-.32,1.75-.97,2.38c-.65.62-1.47.94-2.47.94-.66,0-1.27-.09-1.83-.27-.56-.18-1.09-.46-1.61-.85v-2.25c.46.59.96,1.04,1.51,1.34.55.31,1.13.46,1.73.46.56,0,1-.12,1.32-.37.32-.25.52-.52.62-.82.01-.06.02-.12.04-.18.01-.06.02-.12.02-.18,0-.54-.2-.99-.61-1.36s-.88-.72-1.42-1.05c-.11-.06-.21-.12-.31-.19-.1-.07-.2-.13-.3-.19-.67-.41-1.28-.87-1.84-1.38-.55-.51-.83-1.18-.83-2.02,0-1,.34-1.79,1.02-2.39.68-.59,1.58-.89,2.71-.89.47,0,.93.07,1.39.22.46.14.91.36,1.34.65v-.02Z" fill="#7c7d81"/>
    <path d="M150.59,182.28h-1.8l-1.64-3.62h-5.22l-1.55,3.62h-1.8l5.27-12.35h1.24l5.49,12.35ZM142.61,177.08h3.82l-1.98-4.45-1.84,4.45Z" fill="#7c7d81"/>
    <path d="M157.3,170c1.34.01,2.33.36,2.96,1.05.63.69.95,1.52.95,2.49s-.33,1.77-1,2.44-1.71,1-3.14,1h-1.84v5.29h-1.76v-12.28h3.83ZM155.23,175.39h2c.66.01,1.18-.15,1.57-.49.39-.34.58-.81.58-1.42v-.18c-.04-.42-.21-.82-.51-1.17-.31-.36-.83-.54-1.58-.54h-2.07v3.8Z" fill="#7c7d81"/>
    <path d="M173.57,182.28h-1.8l-1.64-3.62h-5.22l-1.55,3.62h-1.8l5.27-12.35h1.24l5.49,12.35ZM165.6,177.08h3.82l-1.98-4.45-1.84,4.45Z" fill="#7c7d81"/>
    <path d="M179.68,170c1.25.01,2.23.32,2.95.94.72.61,1.08,1.45,1.08,2.52,0,.71-.18,1.32-.53,1.84-.35.52-.86.91-1.52,1.17.35.23.66.5.95.81.28.31.55.67.82,1.06.16.23.32.47.48.73.16.26.33.53.5.8.07.12.14.23.21.34.07.11.13.21.21.31.01.02.03.05.04.08.02.03.04.06.06.08.14.22.31.45.49.69s.4.55.67.91h-2.11l-1.62-2.52c-.68-1.06-1.24-1.77-1.66-2.13-.42-.37-.82-.57-1.19-.62-.07-.01-.14-.02-.21-.03-.07,0-.13,0-.21,0h-.74v5.31h-1.76v-12.28h3.1ZM178.34,175.37h1.13c.94.01,1.57-.18,1.91-.58.33-.4.5-.85.5-1.36v-.04c-.01-.58-.2-1.04-.58-1.37-.37-.33-.98-.5-1.84-.5h-1.13v3.85Z" fill="#7c7d81"/>
    <path d="M196.63,171.59h-4.25v10.69h-1.76v-10.69h-4.25v-1.58h10.26v1.58Z" fill="#7c7d81"/>
    <path d="M211.32,182.28h-1.76v-9.56h-.04l-3.78,4.75h-.29l-3.78-4.75h-.04v9.56h-1.76v-12.28h1.66l4.07,5.04,4.09-5.04h1.64v12.28Z" fill="#7c7d81"/>
    <path d="M222.55,171.59h-5.2v3.71h5.02v1.58h-5.02v3.82h5.36v1.58h-7.13v-12.28h6.97v1.58Z" fill="#7c7d81"/>
    <path d="M237.56,182.28h-1.51l-8.21-9.45v9.45h-1.66v-12.28h1.4l8.32,9.5v-9.5h1.66v12.28Z" fill="#7c7d81"/>
    <path d="M251.1,171.59h-4.25v10.69h-1.76v-10.69h-4.25v-1.58h10.26v1.58Z" fill="#7c7d81"/>
    <path d="M260.21,170.71v2c-.52-.48-1.02-.81-1.51-.99-.49-.18-.95-.27-1.37-.27-.56,0-1.03.13-1.39.41-.37.27-.55.62-.55,1.05s.16.82.49,1.12c.33.31.74.6,1.22.87.14.08.3.17.46.26s.33.18.5.28c.66.38,1.27.85,1.82,1.4.55.55.83,1.31.83,2.29s-.32,1.75-.97,2.38c-.65.62-1.47.94-2.47.94-.66,0-1.27-.09-1.83-.27-.56-.18-1.1-.46-1.61-.85v-2.25c.46.59.96,1.04,1.51,1.34.55.31,1.13.46,1.73.46.56,0,1-.12,1.32-.37.32-.25.52-.52.62-.82.01-.06.02-.12.04-.18.01-.06.02-.12.02-.18,0-.54-.2-.99-.61-1.36s-.88-.72-1.42-1.05c-.11-.06-.21-.12-.32-.19-.1-.07-.2-.13-.3-.19-.67-.41-1.28-.87-1.84-1.38-.55-.51-.83-1.18-.83-2.02,0-1,.34-1.79,1.02-2.39.68-.59,1.58-.89,2.71-.89.47,0,.93.07,1.39.22.46.14.91.36,1.34.65v-.02Z" fill="#7c7d81"/>
  </g>
  <g>
    <path d="M19.85,142.05c0,5.77.11,6.6,3.3,6.87l1.76.17c.33.22.22,1.21-.11,1.38-3.13-.11-5-.17-7.2-.17s-4.12.05-7.64.17c-.33-.17-.44-1.1,0-1.38l1.98-.17c3.13-.28,3.41-1.1,3.41-6.87v-24.58c0-1.71,0-1.76-1.65-1.76h-3.02c-2.36,0-5.39.11-6.76,1.37-1.32,1.21-1.87,2.42-2.47,3.8-.44.33-1.21.05-1.43-.39.88-2.47,1.71-5.99,2.09-8.19.17-.11.88-.17,1.04,0,.33,1.76,2.14,1.7,4.67,1.7h22.27c2.97,0,3.46-.11,4.29-1.54.27-.11.88-.06.99.16-.6,2.25-.99,6.71-.83,8.36-.22.44-1.15.44-1.43.11-.16-1.38-.55-3.41-1.38-4.01-1.26-.93-3.35-1.37-6.38-1.37h-3.9c-1.65,0-1.59.05-1.59,1.87v24.47Z" fill="#7c7d81"/>
    <path d="M51.15,134.79c-2.3,0-2.4.1-2.4,1.54v6.77c0,5.04.24,5.71,2.93,6l1.39.14c.29.19.19,1.06-.1,1.2-2.59-.1-4.22-.14-6.1-.14-2.06,0-3.7.1-5.57.14-.29-.14-.38-.91-.1-1.2l.82-.14c2.69-.48,2.78-.96,2.78-6v-17.28c0-5.04-.34-5.86-2.83-6.05l-1.25-.1c-.29-.19-.19-1.06.1-1.2,2.35.05,3.98.14,6.05.14,1.87,0,3.5-.05,5.57-.14.29.14.38,1.01.1,1.2l-.91.1c-2.78.29-2.88,1.01-2.88,6.05v5.52c0,1.49.1,1.54,2.4,1.54h13.73c2.3,0,2.4-.05,2.4-1.54v-5.52c0-5.04-.1-5.76-2.93-6.05l-.91-.1c-.29-.19-.19-1.06.1-1.2,2.21.1,3.84.14,5.81.14s3.5-.05,5.66-.14c.29.14.38,1.01.1,1.2l-1.01.1c-2.78.29-2.88,1.01-2.88,6.05v17.28c0,5.04.1,5.66,2.88,6l1.15.14c.29.19.19,1.06-.1,1.2-2.3-.1-3.94-.14-5.81-.14-1.97,0-3.7.05-5.81.14-.29-.14-.38-.91-.1-1.2l.91-.14c2.93-.48,2.93-.96,2.93-6v-6.77c0-1.44-.1-1.54-2.4-1.54h-13.73Z" fill="#7c7d81"/>
    <path d="M85.9,125.81c0-4.99-.1-5.71-2.93-6.05l-.77-.1c-.29-.19-.19-1.06.1-1.2,2.06.1,3.7.14,5.66.14h9.03c3.07,0,5.9,0,6.48-.14.29.82.58,4.27.77,6.38-.19.29-.96.38-1.2.1-.72-2.26-1.15-3.94-3.65-4.56-1.01-.24-2.55-.29-4.66-.29h-3.46c-1.44,0-1.44.1-1.44,1.92v9.6c0,1.34.14,1.34,1.58,1.34h2.78c2.02,0,3.5-.1,4.08-.29.58-.19.91-.48,1.15-1.68l.38-1.97c.24-.29,1.06-.29,1.25.05,0,1.15-.19,3.02-.19,4.85,0,1.73.19,3.55.19,4.61-.19.34-1.01.34-1.25.05l-.43-1.87c-.19-.86-.53-1.59-1.49-1.82-.67-.19-1.82-.24-3.7-.24h-2.78c-1.44,0-1.58.05-1.58,1.3v6.77c0,2.54.14,4.18.91,4.99.58.58,1.58,1.1,5.81,1.1,3.7,0,5.09-.19,6.14-.72.86-.48,2.16-2.16,3.41-4.66.34-.24,1.01-.1,1.2.34-.34,1.68-1.54,5.38-2.16,6.67-4.32-.1-8.59-.14-12.87-.14h-4.32c-2.06,0-3.7.05-6.53.14-.29-.14-.38-.91-.1-1.2l1.58-.14c2.74-.24,2.98-.96,2.98-6v-17.28Z" fill="#7c7d81"/>
    <path d="M144.04,135.61c1.26,2.58,2.47,5.12,3.79,7.54h.11c1.48-2.59,2.86-5.45,4.23-8.25l5.17-10.5c2.47-5,4.07-8.03,4.18-10.56,1.87.16,3.02.16,4.12.16,1.38,0,3.19-.05,4.89-.16.33.22.33,1.16.06,1.37l-1.16.11c-3.46.33-3.9,1.38-3.85,5.22.11,5.83.17,16,.6,23.92.17,2.75.11,4.23,2.7,4.45l1.76.17c.33.33.27,1.16-.11,1.38-2.25-.11-4.51-.17-6.49-.17s-4.4.05-6.65.17c-.38-.27-.44-1.04-.11-1.38l1.59-.17c2.69-.28,2.69-1.15,2.69-4.67l-.17-22.93h-.11c-.39.6-2.47,5-3.58,7.15l-4.89,9.62c-2.48,4.84-4.95,10.01-5.94,12.54-.11.17-.33.22-.55.22-.11,0-.38-.05-.5-.22-.93-2.91-3.57-8.3-4.84-11l-4.95-10.61c-1.15-2.53-2.31-5.39-3.52-7.92h-.11c-.22,3.41-.39,6.6-.55,9.79-.17,3.35-.39,8.25-.39,12.92,0,4.07.33,4.95,2.47,5.11l2.09.17c.38.33.33,1.21-.05,1.38-1.87-.11-4.01-.17-6.1-.17-1.76,0-3.74.05-5.61.17-.33-.27-.44-1.1-.11-1.38l1.21-.17c2.31-.33,3.08-.66,3.41-4.51.33-3.63.6-6.65.93-12.1.28-4.56.5-9.24.61-12.26.11-3.46-.33-4.29-3.68-4.73l-.88-.11c-.28-.33-.22-1.15.22-1.37,1.65.11,2.97.16,4.34.16,1.26,0,2.75,0,4.56-.16-.22,2.14,1.15,5.55,2.86,9.07l6.27,12.7Z" fill="#7c7d81"/>
    <path d="M181.7,125.91c0-5.09-.1-5.9-2.93-6.14l-1.2-.1c-.29-.19-.19-1.06.1-1.2,2.4.1,4.03.14,6.05.14s3.55-.05,5.95-.14c.29.14.38,1.01.1,1.2l-1.2.1c-2.83.24-2.93,1.06-2.93,6.14v17.09c0,5.09.1,5.76,2.93,6.1l1.2.14c.29.19.19,1.06-.1,1.2-2.4-.1-4.03-.14-5.95-.14-2.02,0-3.65.05-6.05.14-.29-.14-.38-.91-.1-1.2l1.2-.14c2.83-.34,2.93-1.01,2.93-6.1v-17.09Z" fill="#7c7d81"/>
    <path d="M200.32,125.81c0-5.04-.1-5.81-3.12-6.05l-1.2-.1c-.29-.19-.19-1.06.1-1.2,2.69.1,4.32.14,6.24.14s3.5-.05,5.9-.14c.29.14.38,1.01.1,1.2l-1.15.1c-2.83.24-2.93,1.01-2.93,6.05v16.71c0,3.03.14,4.27,1.01,5.19.53.53,1.44,1.1,5.23,1.1,4.08,0,5.09-.19,5.86-.62.96-.58,2.21-2.3,3.17-4.75.29-.24,1.2-.05,1.2.29,0,.53-1.34,5.42-2.02,6.72-2.45-.1-7.01-.14-11.95-.14h-4.42c-2.02,0-3.55.05-6.24.14-.29-.14-.38-.91-.1-1.2l1.44-.14c2.78-.29,2.88-.96,2.88-6v-17.28Z" fill="#7c7d81"/>
    <path d="M229.26,125.81c0-5.04-.1-5.81-3.12-6.05l-1.2-.1c-.29-.19-.19-1.06.1-1.2,2.69.1,4.32.14,6.24.14s3.5-.05,5.9-.14c.29.14.38,1.01.1,1.2l-1.15.1c-2.83.24-2.93,1.01-2.93,6.05v16.71c0,3.03.14,4.27,1.01,5.19.53.53,1.44,1.1,5.23,1.1,4.08,0,5.09-.19,5.86-.62.96-.58,2.21-2.3,3.17-4.75.29-.24,1.2-.05,1.2.29,0,.53-1.34,5.42-2.02,6.72-2.45-.1-7.01-.14-11.95-.14h-4.42c-2.02,0-3.55.05-6.24.14-.29-.14-.38-.91-.1-1.2l1.44-.14c2.78-.29,2.88-.96,2.88-6v-17.28Z" fill="#7c7d81"/>
    <path d="M258.21,125.81c0-4.99-.1-5.71-2.93-6.05l-.77-.1c-.29-.19-.19-1.06.1-1.2,2.06.1,3.7.14,5.66.14h9.02c3.07,0,5.9,0,6.48-.14.29.82.58,4.27.77,6.38-.19.29-.96.38-1.2.1-.72-2.26-1.15-3.94-3.65-4.56-1.01-.24-2.54-.29-4.66-.29h-3.46c-1.44,0-1.44.1-1.44,1.92v9.6c0,1.34.14,1.34,1.58,1.34h2.78c2.02,0,3.5-.1,4.08-.29.58-.19.91-.48,1.15-1.68l.38-1.97c.24-.29,1.06-.29,1.25.05,0,1.15-.19,3.02-.19,4.85,0,1.73.19,3.55.19,4.61-.19.34-1.01.34-1.25.05l-.43-1.87c-.19-.86-.53-1.59-1.49-1.82-.67-.19-1.82-.24-3.7-.24h-2.78c-1.44,0-1.58.05-1.58,1.3v6.77c0,2.54.14,4.18.91,4.99.58.58,1.58,1.1,5.81,1.1,3.7,0,5.09-.19,6.14-.72.86-.48,2.16-2.16,3.41-4.66.34-.24,1.01-.1,1.2.34-.34,1.68-1.54,5.38-2.16,6.67-4.32-.1-8.59-.14-12.87-.14h-4.32c-2.06,0-3.7.05-6.53.14-.29-.14-.38-.91-.1-1.2l1.58-.14c2.74-.24,2.98-.96,2.98-6v-17.28Z" fill="#7c7d81"/>
    <path d="M288.64,125.86c0-4.56-.14-5.38-2.11-5.62l-1.54-.19c-.34-.24-.34-1.01.05-1.2,2.69-.24,6-.38,10.71-.38,2.98,0,5.81.24,8.02,1.44,2.3,1.2,3.98,3.36,3.98,6.72,0,4.56-3.6,7.06-6,8.02-.24.29,0,.77.24,1.15,3.84,6.19,6.38,10.03,9.65,12.77.82.72,2.02,1.25,3.31,1.34.24.1.29.48.05.67-.43.14-1.2.24-2.11.24-4.08,0-6.53-1.2-9.94-6.05-1.25-1.78-3.22-5.09-4.7-7.25-.72-1.06-1.49-1.54-3.41-1.54-2.16,0-2.26.05-2.26,1.06v6.05c0,5.04.1,5.62,2.88,6l1.01.14c.29.24.19,1.06-.1,1.2-2.16-.1-3.79-.14-5.71-.14-2.02,0-3.75.05-6,.14-.29-.14-.38-.87-.1-1.2l1.2-.14c2.78-.34,2.88-.96,2.88-6v-17.23ZM292.58,132.73c0,.86,0,1.39.14,1.58.14.14.86.24,3.31.24,1.73,0,3.55-.19,4.94-1.25,1.3-1.01,2.4-2.69,2.4-5.95,0-3.79-2.35-7.39-7.68-7.39-2.98,0-3.12.19-3.12,1.54v11.23Z" fill="#7c7d81"/>
  </g>
  <path d="M22.23,87.77c-.83,0-1.5.61-1.5,1.35s.67,1.35,1.5,1.35h68.22v-2.7H22.23Z" fill="#7c7d81"/>
  <path d="M292.26,87.77h-66.56v2.7h66.56c.83,0,1.5-.61,1.5-1.35s-.67-1.35-1.5-1.35Z" fill="#7c7d81"/>
  <path d="M114.6,95.73h.18c.38-.12.77-.23,1.15-.34-.44.11-.89.22-1.33.34Z" fill="none"/>
  <path d="M178.91,93.65c.31.09.62.18.93.27.12-.09.25-.18.38-.27h-1.31Z" fill="none"/>
  <path d="M153.69,11.34c0,1.2.14,2.35.37,3.42,1.15-.08,2.31-.14,3.49-.14.77,0,1.54.02,2.3.06V2.06c-.76-.03-1.53-.06-2.3-.06-.03,0-.05,0-.08,0-2.22,1.51-3.79,5.12-3.79,9.34Z" fill="#b3b3b3"/>
  <path d="M208.69,58.99c-1.07,0-2.08.12-3.04.31.09,1.18.15,2.37.15,3.57,0,.77-.02,1.53-.06,2.28h12.52c.02-.64.04-1.28.05-1.92-1.3-2.46-5.11-4.24-9.62-4.24Z" fill="#b3b3b3"/>
  <path d="M106.05,66.34c1.19,0,2.31-.14,3.37-.37-.07-1.03-.11-2.06-.11-3.11,0-.9.03-1.8.08-2.68h-12.53c-.04.83-.06,1.66-.06,2.5,1.55,2.16,5.11,3.67,9.26,3.67Z" fill="#b3b3b3"/>
  <path d="M207.9,72.4c-1.01-.27-2-.43-2.96-.5-.37,1.94-.85,3.84-1.45,5.7l12.09,3.24c.19-.6.35-1.21.52-1.82-.6-2.72-3.83-5.45-8.2-6.62Z" fill="#b3b3b3"/>
  <path d="M106.84,52.93c1.16.31,2.3.48,3.39.53.38-1.91.88-3.78,1.48-5.6l-12.15-3.25c-.25.8-.48,1.61-.7,2.43.96,2.47,3.99,4.83,7.98,5.9Z" fill="#b3b3b3"/>
  <path d="M106.34,29.74c-1.68,2.91.87,7.53,5.7,10.32.72.41,1.44.75,2.17,1.04.9-1.79,1.9-3.51,3.01-5.17l-10.83-6.25s-.03.04-.04.06Z" fill="#b3b3b3"/>
  <path d="M118.48,28.97c.87.87,1.8,1.6,2.75,2.2,1.27-1.45,2.61-2.83,4.04-4.12l-8.91-8.9c-.63.58-1.24,1.16-1.84,1.77-.39,2.62,1.06,6.16,3.96,9.06Z" fill="#b3b3b3"/>
  <path d="M128.52,20.06c.61,1.06,1.32,2,2.07,2.82,1.59-1.08,3.26-2.05,4.98-2.93l-6.31-10.93c-.75.39-1.48.81-2.21,1.23-1.07,2.43-.6,6.24,1.47,9.82Z" fill="#b3b3b3"/>
  <path d="M140.53,14.04c.31,1.17.75,2.25,1.26,3.23,1.81-.63,3.67-1.15,5.57-1.56l-3.27-12.19c-.8.18-1.59.37-2.38.59-1.71,2.05-2.26,5.9-1.18,9.93Z" fill="#b3b3b3"/>
  <path d="M167.1,12.14c-.31,1.14-.47,2.26-.52,3.34,1.92.36,3.8.84,5.63,1.42l3.27-12.2c-.73-.23-1.47-.43-2.21-.63-2.57.84-5.06,3.94-6.17,8.07Z" fill="#b3b3b3"/>
  <path d="M179.85,16.38c-.58,1-1.02,2.02-1.35,3.03,1.75.85,3.44,1.81,5.07,2.86l6.3-10.92c-.63-.4-1.27-.79-1.92-1.16-2.71.11-5.95,2.47-8.1,6.2Z" fill="#b3b3b3"/>
  <path d="M191.06,23.77c-.81.81-1.49,1.67-2.06,2.55,1.47,1.27,2.87,2.61,4.18,4.04l8.9-8.9c-.49-.53-.98-1.05-1.49-1.56-2.65-.65-6.44.79-9.52,3.87Z" fill="#b3b3b3"/>
  <path d="M199.98,33.82c-.97.56-1.82,1.2-2.58,1.88,1.09,1.6,2.09,3.27,2.99,5l10.89-6.29c-.32-.61-.66-1.22-1.01-1.82-2.38-1.37-6.47-.98-10.29,1.22Z" fill="#b3b3b3"/>
  <path d="M108.75,79.5c1.12-.3,2.16-.72,3.11-1.2-.62-1.82-1.14-3.69-1.54-5.6l-12.08,3.24c.18.8.36,1.6.57,2.39,2.05,1.71,5.9,2.25,9.93,1.18Z" fill="#b3b3b3"/>
  <path d="M205.99,45.83c-1.05.28-2.01.67-2.91,1.11.64,1.83,1.17,3.7,1.59,5.62l12.12-3.25c-.14-.64-.29-1.27-.45-1.9-1.9-2.02-6.03-2.74-10.36-1.58Z" fill="#b3b3b3"/>
  <path d="M104.55,92.42c-1.18-2.1-2.24-4.28-3.17-6.52-1.01-2.45-1.87-4.98-2.56-7.57-.21-.79-.4-1.59-.57-2.39-.94-4.24-1.45-8.65-1.45-13.17,0-.03,0-.06,0-.09,0-.84.03-1.67.06-2.5.19-4.53.88-8.93,2.01-13.15.22-.81.45-1.63.7-2.43,2.96-9.42,8.15-17.86,14.95-24.69.6-.6,1.22-1.19,1.84-1.77,3.26-3.01,6.84-5.66,10.7-7.9.73-.42,1.46-.83,2.21-1.23,3.92-2.07,8.09-3.72,12.45-4.9.79-.21,1.58-.41,2.38-.59,4.31-.98,8.79-1.51,13.39-1.52.03,0,.05,0,.08,0,.77,0,1.54.03,2.3.06,4.62.17,9.11.86,13.41,2.01.74.2,1.48.4,2.21.63,4.39,1.36,8.57,3.21,12.47,5.48.65.38,1.29.76,1.92,1.16,3.89,2.45,7.49,5.32,10.72,8.56.51.51,1,1.04,1.49,1.56,3.13,3.38,5.88,7.11,8.19,11.13.34.6.68,1.2,1.01,1.82,2.16,4.08,3.88,8.43,5.08,13,.16.63.31,1.27.45,1.9.98,4.33,1.52,8.83,1.52,13.45,0,.15-.01.31-.01.46,0,.64-.02,1.28-.05,1.92-.19,4.78-.93,9.42-2.16,13.86-.17.61-.33,1.22-.52,1.82-.54,1.72-1.16,3.41-1.84,5.07-.78,1.89-1.65,3.73-2.61,5.52,1.1-.61,2.19-1.29,3.25-2.02.54-1.15,1.04-2.32,1.51-3.5,2.85-7.16,4.44-14.96,4.44-23.13,0-34.61-28.16-62.77-62.77-62.77s-62.77,28.16-62.77,62.77c0,8.17,1.59,15.97,4.44,23.13,1.07,2.68,2.31,5.27,3.72,7.75t0,0c.53-.42,1.06-.83,1.6-1.23Z" fill="#666"/>
  <path d="M204.76,85.84c-.38-.26-.77-.52-1.18-.76-.89-.52-1.8-.92-2.7-1.24-.86,1.77-1.84,3.48-2.9,5.12l8.01,4.62.08.05c1.2-.44,2.39-.95,3.55-1.53-.52-2.14-2.27-4.47-4.86-6.27Z" fill="#b3b3b3"/>
  <path d="M155.81,63.53c-.12-.25-.19-.52-.19-.81,0-.13.01-.26.04-.39l-.48-.46h-35.85c0,.33-.03.67-.03,1s.02.67.03,1h36.16l.32-.34Z" fill="#7c7e81"/>
  <path d="M159.4,62.66s0,.04,0,.06c0,.14-.02.27-.04.4l.78.75h35.62c0-.33.03-.67.03-1s-.02-.67-.03-1h-35.61l-.76.79Z" fill="#7c7e81"/>
  <path d="M193.93,94.44c.17.11-.16-.11.01,0,.24-.27.48-.54.71-.82,1.22-1.47,2.35-3.02,3.39-4.62,1.06-1.64,2.04-3.35,2.9-5.12.99-2.03,1.83-4.14,2.53-6.31.6-1.85,1.08-3.75,1.45-5.7.42-2.2.69-4.45.8-6.75.04-.76.06-1.52.06-2.28,0-1.2-.06-2.39-.15-3.57-.17-2.29-.49-4.54-.97-6.74-.42-1.92-.95-3.8-1.59-5.62-.76-2.15-1.66-4.24-2.7-6.24-.9-1.73-1.89-3.4-2.99-5-1.28-1.87-2.69-3.66-4.22-5.33-1.31-1.43-2.71-2.78-4.18-4.04-1.71-1.48-3.53-2.83-5.44-4.06-1.63-1.05-3.31-2.01-5.07-2.86-2.02-.98-4.12-1.81-6.29-2.51-1.83-.58-3.71-1.06-5.63-1.42-2.19-.42-4.44-.69-6.72-.8-.76-.04-1.53-.06-2.3-.06-1.17,0-2.33.06-3.49.14-2.28.16-4.52.48-6.71.95-1.9.41-3.76.94-5.57,1.56-2.15.74-4.22,1.64-6.22,2.66-1.72.88-3.38,1.86-4.98,2.93-1.87,1.27-3.65,2.66-5.33,4.18-1.43,1.29-2.78,2.67-4.04,4.12-1.35,1.55-2.62,3.18-3.76,4.89-1.11,1.65-2.11,3.38-3.01,5.16-1.07,2.13-1.99,4.34-2.74,6.63-.6,1.82-1.1,3.69-1.48,5.6-.43,2.19-.72,4.43-.85,6.72-.05.89-.08,1.78-.08,2.68,0,1.05.04,2.08.11,3.11.15,2.29.44,4.53.9,6.72.4,1.91.92,3.78,1.54,5.6.89,2.64,2,5.19,3.32,7.6.05.09.1.17.15.26,3.09-1.37,6.32-2.48,9.65-3.29-3.42-5.56-5.46-12.05-5.64-19,0-.33-.03-.67-.03-1s.02-.67.03-1c.25-9.55,4-18.24,10.03-24.82l-6.14-5.9,1.39-1.44,6.14,5.9c6.68-6.58,15.77-10.71,25.8-10.97v-5.03h2v5.03c9.54.25,18.23,4,24.81,10.02l4.7-4.93,1.45,1.38-4.71,4.94c6.58,6.69,10.72,15.77,10.98,25.81,0,.33.03.67.03,1s-.02.67-.03,1c-.21,8.26-3.05,15.87-7.71,22.03-.7.92-1.43,1.81-2.21,2.67l1.58,1.51-1.39,1.44-1.58-1.51c-1.33,1.31-2.75,2.53-4.25,3.64-.12.09-.25.18-.38.27,3.17.89,6.39,1.52,9.63,1.82l3.07.06,1.41-1.33Z" fill="#7c7e81" stroke="#7c7e81" stroke-miterlimit="10"/>
  <path d="M157.97,64.55c-.14.03-.28.06-.43.06l-.99,1.04v18.84c.67.23,1.34.47,2,.72v-20.11l-.58-.56Z" fill="#7c7e81"/>
  <path d="M157.05,60.88c.15-.04.3-.06.47-.06.26,0,.51.05.74.15l.3-.31V19.62h-2v40.79l.5.48Z" fill="#7c7e81"/>
  <path d="M158.25,60.92c.66.28,1.13.93,1.15,1.69l.76-.79,24.63-25.81,4.71-4.94-1.45-1.38-4.7,4.93-24.81,25.99-.3.31Z" fill="#7c7e81"/>
  <path d="M157.55,64.61s-.02,0-.03,0c-.75,0-1.4-.44-1.71-1.08l-.32.34-16.66,17.45c.89.01,1.77.06,2.66.11l15.07-15.78.99-1.04Z" fill="#7c7e81"/>
  <path d="M160.15,63.87l-.78-.75c-.15.71-.7,1.26-1.39,1.44l.58.56,21.64,20.8,4.27,4.11,1.58,1.51,1.39-1.44-1.58-1.51-2.77-2.67-22.93-22.03Z" fill="#7c7e81"/>
  <path d="M155.66,62.33c.15-.71.69-1.26,1.39-1.44l-.5-.48-25.8-24.79-6.14-5.9-1.39,1.44,6.14,5.9,25.82,24.82.48.46Z" fill="#7c7e81"/>
  <path d="M215.63,91.15c-3.57,2.94-7.43,5.26-11.53,6.73-4.94,1.8-10.11,2.41-15.23,2.08-5.13-.33-10.21-1.52-15.15-3.26-2.47-.87-4.93-1.84-7.33-2.96l-1.81-.83-1.81-.88c-1.26-.63-2.65-1.29-4.01-1.87-2.75-1.14-5.58-2.13-8.48-2.89-2.9-.73-5.86-1.3-8.85-1.58-5.97-.59-12.03-.18-17.8,1.16-5.77,1.35-11.26,3.59-16.24,6.55-1.94,1.16-3.81,2.42-5.58,3.79-.5.38-1,.77-1.48,1.18-2.21,1.82-4.28,3.81-6.06,6.02,4.84-2.91,9.88-5.21,15-7.01,1.78-.62,3.56-1.17,5.36-1.65.44-.12.89-.23,1.33-.34,1.04-.31,2.09-.6,3.15-.84,5.77-1.35,11.83-1.75,17.8-1.16,2.99.28,5.95.84,8.85,1.58,2.9.76,5.73,1.75,8.48,2.89,1.36.58,2.75,1.24,4.01,1.87l1.81.88,1.81.83c.64.3,1.29.56,1.93.83,2.4.97,4.84,1.85,7.35,2.57,5.68,1.62,11.7,2.56,17.75,2.2,6.03-.34,12.07-2.04,17.16-5.18,2.75-1.69,5.2-3.77,7.29-6.12.6-.67,1.17-1.37,1.7-2.08,1.05-1.4,1.99-2.87,2.78-4.4-.72.66-1.45,1.29-2.19,1.9Z" fill="#27aae1"/>
</svg>