<?xml version="1.0" encoding="UTF-8"?>
<svg id="a" data-name="Слой 1" xmlns="http://www.w3.org/2000/svg" viewBox="0 0 183.58 130.99">
  <g>
    <path d="M113.7,46.82c-.16.18-.31.38-.44.58V1h.48v42.14c-.23.6-.35,1.23-.35,1.88s.1,1.22.31,1.8ZM114.71,1h-.48v41.16c.14-.22.3-.43.48-.63V1ZM115.18,37.84c.13-.25.29-.49.48-.71v-.39c-.04-.18-.06-.37-.06-.57s.02-.41.06-.6V1h-.48v36.84h0s0,0,0,0ZM116.41,34.09l-.03-.09V1h-.34v33.59c.1-.16.21-.32.34-.46.01-.01.02-.03.03-.04ZM116.85,33.67V1h-.17v32.82h.01s.16-.15.16-.15ZM117.19,1h-.12v32.49l.12-.1V1ZM58.14,58.16c.55.31,1.14.46,1.73.46.91,0,1.81-.36,2.48-1.02.1.04.21.07.32.1.16.05.33.09.5.13.16.03.33.06.5.07.19.03.38.04.57.04h.02c.08,0,.16-.03.24-.03.1.1.21.19.32.27.1.09.21.16.33.23.06.03.11.06.17.08.16.09.33.16.5.21.35.11.71.17,1.07.17.06,0,.11,0,.17-.01,1.15-.05,2.25-.66,2.87-1.74.32-.55.45-1.16.45-1.75.52-.3.98-.72,1.3-1.28.96-1.67.39-3.81-1.28-4.78-.03-.01-.07-.02-.1-.04.38-1.48-.24-3.09-1.63-3.89-.51-.3-1.06-.44-1.61-.45-.04-.01-.07-.01-.11-.01-.61,0-1.21.16-1.75.46-.29.02-.57.07-.84.16-.01-.02-.03-.04-.04-.06-.29-.46-.68-.85-1.18-1.14-.55-.32-1.15-.47-1.75-.47-1.2,0-2.38.62-3.03,1.75-.53.92-.58,1.99-.25,2.92-.27.24-.52.52-.72.85-.62,1.08-.6,2.34-.07,3.36-.17.19-.33.4-.46.63-.97,1.67-.39,3.81,1.28,4.78ZM128.48,66.5c-.2-.15-2.42-1.81-7.2-3.56-.19-.07-.39-.14-.59-.21h-.01c-.2-.07-.41-.15-.62-.22l.58-.36,1.51-.92c1.6-1.12,2.56-2.95,2.56-4.89,0-.96-.23-1.89-.67-2.75l-.11-.19.08-.21c.25-.66.38-1.33.38-2.01,0-1.46-.56-2.85-1.57-3.91l-.23-.24.13-.3c.23-.55.35-1.12.35-1.71,0-1.28-.57-2.49-1.58-3.33l-.31-.26.19-.36c.24-.45.36-.92.36-1.4,0-.81-.33-1.58-.92-2.15l-.24-.23.13-.32c.1-.26.16-.53.16-.8,0-.51-.18-.99-.52-1.38l-.87-.89-.61-.63-1.56,1.34s-.08.07-.11.11c-.05.04-.09.09-.12.14-.09.1-.16.21-.22.33-.07.13-.13.27-.17.41-.05.18-.08.37-.08.57s.03.38.08.56c.02.08.05.16.08.24l.09.22.04.1-.04.04-.17.16-.03.03c-.1.09-.19.2-.27.3-.14.17-.25.35-.34.54-.2.4-.31.85-.31,1.31s.1.87.31,1.29c.01.04.03.07.05.11l.19.36-.24.2-.07.06c-.11.09-.21.19-.31.28-.18.19-.35.38-.48.59-.2.26-.35.55-.47.85-.21.5-.32,1.05-.32,1.61s.11,1.11.32,1.63c.01.03.02.05.03.08l.13.3-.16.17-.07.07c-.15.15-.28.31-.41.48-.19.24-.35.5-.49.77-.21.38-.37.79-.48,1.22-.13.47-.19.95-.19,1.44s.06.93.19,1.39c.05.21.11.42.19.62l.08.2-.11.2c-.05.11-.11.22-.16.33-.33.76-.51,1.58-.51,2.42s.18,1.64.51,2.39c.13.31.29.6.48.88.14.23.3.45.49.65.14.18.31.34.48.5.13.12.27.24.42.33-.14-.03-.28-.06-.42-.1-.16-.03-.32-.07-.48-.11-.04-.01-.09-.02-.13-.03-.12-.03-.24-.05-.36-.08-.16-.04-.32-.07-.48-.11-.18-.03-.35-.07-.53-.11v-.67c-.63-1.06-.98-2.28-.98-3.54,0-1.05.23-2.06.69-3.01-.25-.7-.37-1.43-.37-2.15,0-1.01.23-2,.66-2.89V1.01l-12.25,6.43v51.51s-.04-.01-.06-.01V20.37h-.12v38.57c-.07-.01-.15-.01-.22-.02V20.37h-.17v38.54c-.1,0-.2,0-.3-.02V20.37h-.33v38.5c-.13,0-.26-.01-.39-.01V20.37h-.48v38.46c-.15,0-.3-.01-.46-.02V20.37h-.48v38.42c-.16,0-.33,0-.5,0V20.37h-.48v38.39c-.17,0-.35-.01-.53-.01V20.38l-12.19,5.45v-14.11h-.12v47.32c-.08.01-.15.01-.22.02V11.72h-.17v47.35c-.1.01-.2.02-.3.03V11.72h-.34v47.4c-.13.01-.26.02-.38.04V11.72h-.48v47.48c-.16.01-.31.03-.47.04V11.72h-.48v47.57c-.16.01-.33.03-.49.05V11.72h-.48v47.67c-.18.02-.36.04-.53.06V11.73l-12.25,6.43v25.77c.74.01,1.47.21,2.11.58,1.52.88,2.37,2.56,2.22,4.27,1.76,1.36,2.29,3.84,1.15,5.81-.3.53-.7.97-1.19,1.34-.07.6-.26,1.17-.56,1.69-.77,1.34-2.19,2.19-3.73,2.24v1.84c-.43.11-.84.23-1.24.34-.17.05-.34.1-.5.15-.17.05-.34.1-.5.16v-3c-.06-.02-.12-.05-.17-.08-.13-.08-.26-.16-.39-.26-.04-.02-.07-.04-.11-.07-.16,0-.32-.01-.48-.03v3.8c-.17.06-.34.11-.5.17-.17.06-.34.12-.5.18-4.85,1.71-7.09,3.31-7.28,3.45-.44.33-.54.95-.21,1.39.19.27.5.41.81.41.2,0,.41-.06.58-.19.05-.04,2.8-1.99,8.98-3.87.09-.03.18-.06.27-.08.4-.12.81-.24,1.24-.36,3.24-.91,7.3-1.76,12.25-2.34.18-.02.35-.04.53-.05.16-.03.32-.04.48-.06.16-.02.33-.04.49-.05.16-.02.32-.03.48-.05.16-.02.31-.03.47-.04.16-.02.32-.03.48-.05.13-.01.25-.02.38-.03.11-.01.22-.02.34-.03.1-.01.2-.02.3-.02.06-.01.11-.01.17-.02.07,0,.15-.01.22-.01.02-.01.04-.01.06-.01h.06c2.04-.16,4.22-.26,6.52-.31,1.98-.04,3.87-.03,5.67.01.18,0,.35.01.53.02.16,0,.32.01.48.01.17,0,.34,0,.5.02.16.01.32.01.48.02.16.01.31.01.46.02.16,0,.32.02.48.03.13,0,.26.01.39.02.11,0,.22.01.33.01.1,0,.2.02.3.02.06.01.11.01.17.01.07.01.15.01.22.02h.12s.04.01.06.01c4.77.32,8.84.94,12.25,1.67.18.04.36.08.53.12.16.03.32.07.48.1.17.04.33.08.49.12.16.04.32.08.48.12.16.04.32.07.47.12.16.04.32.08.48.12.13.03.25.06.38.1.11.03.23.06.34.09.1.03.2.06.3.09.06.01.11.03.17.05.07.01.15.03.22.06.04.01.08.02.12.03.47.14.93.28,1.37.42.15.05.31.1.46.15,5.65,1.85,8.19,3.73,8.24,3.77.44.33,1.06.25,1.4-.19.34-.43.26-1.06-.18-1.4Z" fill="#fff"/>
    <path d="M55.99,69.31c-.65,0-1.26-.31-1.63-.84-.3-.4-.44-.93-.35-1.46.08-.52.36-.98.78-1.3.25-.19,2.57-1.84,7.55-3.59.1-.04.21-.08.33-.12v-3.09c0-.06,0-.11.01-.17-.04,0-.07-.02-.1-.03-1.4,1.04-3.39,1.19-4.93.32,0,0,0,0-.01,0-2.15-1.25-2.89-4.01-1.64-6.15.05-.09.11-.19.17-.28-.42-1.22-.3-2.56.35-3.71.14-.23.29-.44.47-.64-.22-1.07-.04-2.18.5-3.13.8-1.39,2.29-2.25,3.9-2.25.79,0,1.57.21,2.25.61.43.25.81.57,1.13.94.04,0,.09-.01.13-.02.37-.18.75-.31,1.15-.39,0-.03,0-.05,0-.08v-25.77c0-.37.21-.71.54-.89l12.25-6.43c.22-.12.47-.14.71-.08.09-.03.19-.04.28-.04h.48c.08,0,.17.01.25.03.08-.02.16-.03.25-.03h.48c.08,0,.16,0,.24.03.08-.02.15-.03.24-.03h.48c.07,0,.13,0,.19.02.06-.01.12-.02.19-.02h.34c.05,0,.1,0,.15.01.05,0,.1-.01.15-.01h.17s.07,0,.11,0c.04,0,.07,0,.11,0h.12c.55,0,1,.45,1,1v12.57l10.78-4.82c.21-.09.44-.11.66-.06.09-.03.18-.04.28-.04h.48c.09,0,.17.01.25.03.08-.02.16-.03.25-.03h.48c.08,0,.16,0,.23.03.07-.02.15-.03.23-.03h.48c.07,0,.13,0,.19.02.06-.01.13-.02.2-.02h.2V7.44c0-.37.21-.71.54-.89L112.26.12c.22-.12.48-.14.71-.08.09-.03.18-.04.28-.04h.48c.08,0,.17.01.25.03.08-.02.16-.03.25-.03h.48c.08,0,.16,0,.24.03.08-.02.15-.03.24-.03h.48c.07,0,.13,0,.19.02.06-.01.12-.02.19-.02h.34c.05,0,.1,0,.15.01.05,0,.1-.01.15-.01h.17s.07,0,.11,0c.04,0,.07,0,.11,0h.12c.55,0,1,.45,1,1v31.53l.02-.02c.4-.35,1-.32,1.37.06l1.48,1.52c.54.62.8,1.32.8,2.08,0,.29-.04.58-.13.87.65.73,1,1.65,1,2.63,0,.52-.1,1.03-.31,1.51,1.05,1.01,1.65,2.39,1.65,3.84,0,.61-.1,1.21-.31,1.8,1.05,1.22,1.63,2.75,1.63,4.36,0,.72-.12,1.44-.37,2.15.46.98.69,1.98.69,3.01,0,2.27-1.12,4.4-2.99,5.71l-.37.23c4.2,1.62,6.33,3.12,6.73,3.42,0,0,0,0,.01,0,.43.33.7.81.76,1.34.07.53-.08,1.05-.41,1.47-.66.85-1.91,1.02-2.79.37-.03-.02-2.48-1.83-7.95-3.62l-.46-.15c-.42-.13-.88-.27-1.34-.41-.05-.01-.18-.05-.22-.07-.05,0-.08-.01-.14-.03-.04,0-.11-.03-.15-.04l-.62-.17c-.13-.04-.23-.06-.34-.09l-.5-.12c-.15-.05-.23-.06-.3-.08l-2.08-.48c-3.82-.82-7.89-1.37-12.14-1.66-.02,0-.05,0-.07,0h-.04s-.09,0-.14,0c-.06,0-.1,0-.14-.01-.06,0-.12,0-.18-.01-.1,0-.21-.01-.31-.02h-.24c-.18-.02-.29-.03-.39-.03l-2.4-.1c-.22-.01-.37-.02-.53-.02-1.99-.04-3.83-.05-5.65-.01-2.34.05-4.51.15-6.46.31,0,0-.03,0-.05,0-.05,0-.1.01-.15.01-.06,0-.11,0-.15,0-.03,0-.06,0-.07,0-.03,0-.14.01-.17.01-.06,0-.12,0-.19.01l-1.19.11c-.2.01-.33.02-.47.04l-.48.05c-.2.01-.35.03-.49.05l-.18.02c-.08,0-.16.02-.24.03-.04,0-.09.01-.13.02-.15,0-.28.02-.43.04-4.45.52-8.52,1.3-12.14,2.31-.43.12-.83.24-1.22.35-.13.03-.18.05-.24.07-6.06,1.84-8.68,3.71-8.7,3.73-.32.25-.74.39-1.18.39ZM117.37,62.77s.09.02.1.03c.48.14.94.28,1.39.43l.47.15c5.92,1.94,8.52,3.91,8.54,3.93l.6-.8-.6.8c-.38-.29-2.52-1.8-6.94-3.42-.17-.06-.34-.12-.51-.18-.03,0-.05-.01-.07-.02l-.61-.22c-.37-.12-.63-.45-.68-.83-.04-.38.14-.76.47-.97l2.1-1.28c1.28-.9,2.08-2.42,2.08-4.04,0-.8-.19-1.57-.56-2.29l-.09-.15c-.15-.26-.17-.57-.07-.86l.08-.21c.21-.55.31-1.11.31-1.65,0-1.2-.46-2.34-1.29-3.22l-.23-.24c-.28-.29-.35-.72-.2-1.09l.13-.3c.18-.43.27-.86.27-1.31,0-.98-.44-1.92-1.22-2.56l-.31-.26c-.36-.3-.46-.82-.24-1.23l.19-.36c.16-.31.25-.62.25-.93,0-.54-.22-1.05-.61-1.43l-.24-.23c-.3-.28-.39-.72-.24-1.1l.13-.32c.06-.14.09-.29.09-.42,0-.27-.09-.51-.27-.72l-.79-.81-.85.73s-.05.06-.08.08c-.02.03-.04.05-.06.08-.02.03-.04.06-.07.11-.05.1-.09.18-.1.24-.03.1-.04.2-.04.29,0,.09.02.19.04.29.02.07.04.11.05.15l.12.3c.15.37.06.8-.22,1.08l-.23.22c-.1.1-.15.16-.2.22-.09.11-.16.22-.22.35-.14.28-.21.58-.21.88s.07.57.2.84c.01.03.03.06.04.08l.19.37c.22.42.12.93-.24,1.23l-.24.2s-.08.06-.08.07c-.05.04-.1.09-.15.14l-.12.11c-.07.08-.21.24-.29.37-.02.03-.04.06-.06.08-.13.16-.24.36-.33.61-.17.39-.25.81-.25,1.24s.08.85.25,1.26c0,.02.05.12.05.15l.1.21c.16.37.08.79-.19,1.08l-.16.17s-.08.08-.08.09c-.12.12-.23.25-.33.39-.15.18-.27.38-.4.62-.18.32-.31.65-.4,1-.11.39-.16.79-.16,1.19s.05.75.15,1.12c.05.2.09.37.16.52l.08.2c.11.28.09.59-.05.86l-.23.46c-.28.64-.42,1.32-.42,2.01s.14,1.35.43,1.99c.11.26.23.49.39.72.14.23.26.39.39.52.02.02.05.05.07.08.11.14.24.26.37.38.07.06.17.15.25.2.42.25.6.77.42,1.22s-.66.72-1.14.61c-.16-.03-.33-.07-.49-.12-.09-.01-.27-.06-.45-.1,0,0-.13-.03-.13-.03l-.84-.19c-.09-.01-.26-.05-.43-.09-.46-.1-.86-.53-.86-.99v-.4c-.64-1.17-.98-2.48-.98-3.81,0-1.06.21-2.1.62-3.07-.2-.68-.3-1.38-.3-2.09,0-1.07.23-2.14.66-3.11V2.66l-10.25,5.38v50.91c0,.55-.45,1-1,1-.04,0-.09,0-.14-.01-.06,0-.12,0-.18,0-.1,0-.16-.01-.21-.02-.01,0-.02,0-.03,0-.13,0-.27-.01-.4-.02-.04,0-.09-.01-.13-.02-.04,0-.07,0-.11,0h-.39c-.1-.01-.21-.03-.3-.06-.2.04-.42.01-.66,0-.08,0-.17-.02-.24-.04-.07.02-.14.02-.22.02h-.5s1.98.08,1.98.08c.09,0,.25,0,.41.02h.25s.08,0,.11.01c.12.01.24,0,.35.03.05,0,.11,0,.16,0,.05,0,.09,0,.13,0h.07c.07,0,.13,0,.2.02,4.36.3,8.49.86,12.32,1.68l2.14.5c.14.03.28.07.42.11l.4.1c.13.03.28.07.43.11l.59.17c.06.01.12.03.17.05.08.02.18.04.28.08ZM64.48,63.29c-.12.16-.28.29-.48.36l-.24.08c-.08.03-.16.05-.24.08l-.5.18c-4.19,1.48-6.36,2.85-6.9,3.22.63-.43,3.49-2.21,9.14-3.93.1-.03.22-.07.34-.1.34-.1.75-.23,1.19-.35,3.72-1.04,7.89-1.84,12.4-2.37.21-.02.37-.04.53-.05.11-.02.22-.03.33-.04l.14-.02c.18-.02.37-.04.55-.06l.42-.04c.18-.02.35-.03.53-.05l1.18-.11c.11-.01.21-.02.32-.02.03,0,.05,0,.06,0,.03,0,.15-.01.18-.01.05,0,.09,0,.12,0,.06,0,.11-.01.16-.01,1.97-.15,4.18-.26,6.56-.31,1.83-.04,3.67-.03,5.64,0-.53-.03-.95-.46-.95-1V21.92l-10.31,4.61v32.51c0,.51-.38.93-.88.99h-.16s-.09.02-.14.01c-.04,0-.07.01-.11.02l-.3.03c-.07,0-.14,0-.21,0-.05.01-.1.02-.15.02-.1,0-.2.01-.29.03-.11.02-.21.02-.32,0-.08.03-.17.04-.26.05l-.47.04c-.07,0-.13,0-.2,0-.09.03-.18.05-.28.06-.14,0-.29.03-.43.04-.09.01-.18,0-.26,0-.07.03-.15.05-.23.05l-.52.06c-.28.03-.57-.06-.78-.25-.21-.19-.34-.46-.34-.75V13.38l-10.25,5.38v24.27c.56.11,1.11.32,1.61.61,1.68.97,2.72,2.77,2.74,4.69,1.84,1.73,2.28,4.54,1,6.76-.29.51-.67.97-1.13,1.37-.11.58-.32,1.14-.62,1.66-.77,1.34-2.1,2.29-3.59,2.62v.96c0,.46-.31.85-.75.97-.29.07-.57.15-.85.23l-.84.25c-.16.05-.31.09-.45.14-.22.08-.47.08-.69,0ZM84.11,61.95h0s0,0,0,0ZM65.82,59.74v1.26l.1-.03s.09-.03.14-.04v-1.07s0-.05,0-.07c-.08-.02-.16-.03-.24-.05ZM96.21,59.75c.11,0,.22,0,.34.02h.38c-.08,0-.16,0-.24-.03-.06.01-.13.02-.2.02h-.28ZM64.5,56.91c.26,0,.52.1.71.29.06.06.13.12.2.17.03.02.06.05.09.07.03.03.1.07.16.11.06.02.1.04.16.07.09.05.19.09.29.12.28.09.54.13.79.13.04,0,.08,0,.13,0,.86-.04,1.62-.5,2.05-1.24.21-.36.32-.78.32-1.25,0-.36.19-.69.5-.87.41-.24.72-.54.93-.91.67-1.17.29-2.66-.84-3.37-.07-.03-.15-.07-.24-.12-.35-.24-.51-.67-.4-1.07.28-1.08-.2-2.22-1.16-2.77-.35-.2-.72-.31-1.13-.32-.04,0-.08,0-.12,0-.43,0-.86.12-1.24.33-.13.07-.27.11-.42.12-.22.02-.41.05-.59.11-.44.15-.92-.03-1.16-.42-.01-.02-.03-.04-.04-.06h0c-.21-.34-.5-.61-.84-.81-1.15-.67-2.75-.24-3.41.91-.36.62-.42,1.39-.17,2.09.14.38.03.81-.28,1.08-.22.2-.4.4-.53.62-.42.72-.43,1.62-.04,2.38.19.37.13.82-.14,1.13-.14.16-.25.31-.33.46-.7,1.2-.29,2.72.91,3.42.98.55,2.23.36,3.01-.4.28-.28.71-.36,1.07-.22.06.03.13.04.2.06.18.06.33.09.47.12.07.01.2.04.33.04.24.03.38.04.51.04.05-.02.16-.03.26-.03Z" fill="#fff"/>
  </g>
  <g>
    <g>
      <path d="M80.32,11.72v47.62c-.16,0-.32.03-.48.05V11.72h.48Z" fill="#f7c634"/>
      <path d="M81.29,11.72v47.52c-.16.02-.32.03-.48.05V11.72h.48Z" fill="#f7c634"/>
      <path d="M82.24,11.72v47.44c-.16.01-.32.02-.48.04V11.72h.48Z" fill="#f7c634"/>
      <path d="M82.96,11.72v47.38c-.12.01-.23.01-.34.02V11.72h.34Z" fill="#f7c634"/>
      <path d="M83.43,11.72v47.34c-.06,0-.12.01-.17.01V11.72h.17Z" fill="#f7c634"/>
      <path d="M83.77,11.72v47.31s-.04,0-.06,0h-.06V11.72h.12Z" fill="#f7c634"/>
    </g>
    <g>
      <path d="M95.96,20.38v38.37c-1.82-.05-3.72-.05-5.71-.01-2.29.05-4.45.15-6.48.29-.02,0-.04,0-.06,0V25.86l.06-.03,12.19-5.45Z" fill="#872f2f"/>
      <path d="M96.97,20.37v38.41c-.16-.01-.32-.01-.48-.02V20.37h.48Z" fill="#872f2f"/>
      <path d="M97.95,20.37v38.44c-.16,0-.32-.01-.48-.02V20.37h.48Z" fill="#872f2f"/>
      <path d="M98.89,20.37v38.49c-.16-.01-.32-.02-.48-.03V20.37h.48Z" fill="#872f2f"/>
      <path d="M99.61,20.37v38.52c-.11,0-.22-.01-.33-.02V20.37h.33Z" fill="#872f2f"/>
      <path d="M100.08,20.37v38.55c-.06,0-.11,0-.17-.01V20.37h.17Z" fill="#872f2f"/>
      <rect x="100.3" y="20.37" width=".12" height="38.57" fill="#872f2f"/>
    </g>
    <g>
      <path d="M112.73,48.29c-.43.89-.66,1.88-.66,2.89,0,.72.12,1.45.37,2.15-.46.95-.69,1.96-.69,3.01,0,1.26.35,2.48.98,3.54v.67c-3.44-.71-7.51-1.29-12.25-1.6V7.44l12.25-6.43v47.28Z" fill="#07a"/>
      <path d="M113.74,1v42.14c-.23.6-.35,1.23-.35,1.88s.1,1.22.31,1.8c-.16.18-.31.38-.44.58V1h.48Z" fill="#07a"/>
      <path d="M114.71,1v40.53c-.18.2-.34.41-.48.63V1h.48Z" fill="#07a"/>
      <path d="M115.66,35.57c-.04.19-.06.4-.06.6s.02.39.06.57v.39c-.19.22-.35.46-.48.71V1h.48v34.57Z" fill="#07a"/>
      <path d="M116.38,1v33.13c-.13.14-.24.3-.34.46V1h.34Z" fill="#07a"/>
      <polygon points="116.85 1 116.85 33.67 116.69 33.81 116.68 33.82 116.68 1 116.85 1" fill="#07a"/>
      <polygon points="117.19 1 117.19 33.39 117.07 33.49 117.07 1 117.19 1" fill="#07a"/>
    </g>
  </g>
  <path d="M79.31,11.73v47.72c-4.91.55-8.96,1.37-12.25,2.25v-1.84c1.54-.05,2.96-.9,3.73-2.24.3-.52.49-1.09.56-1.69.49-.37.89-.81,1.19-1.34,1.14-1.97.61-4.45-1.15-5.81.15-1.71-.7-3.39-2.22-4.27-.64-.37-1.37-.57-2.11-.58v-25.77l12.25-6.43Z" fill="#f7c634"/>
  <path d="M80.32,11.72v47.62c-.16,0-.32.03-.48.05V11.72h.48Z" fill="#f7c634"/>
  <path d="M81.29,11.72v47.52c-.16.02-.32.03-.48.05V11.72h.48Z" fill="#f7c634"/>
  <path d="M82.24,11.72v47.44c-.16.01-.32.02-.48.04V11.72h.48Z" fill="#f7c634"/>
  <path d="M82.96,11.72v47.38c-.12.01-.23.01-.34.02V11.72h.34Z" fill="#f7c634"/>
  <path d="M83.43,11.72v47.34c-.06,0-.12.01-.17.01V11.72h.17Z" fill="#f7c634"/>
  <path d="M83.77,25.83l12.19-5.45v38.37c-1.82-.05-3.72-.05-5.71-.01-2.29.05-4.45.15-6.48.29-.02,0-.04,0-.06,0h-.06" fill="#872f2f"/>
  <path d="M96.97,20.37v38.41c-.16-.01-.32-.01-.48-.02V20.37h.48Z" fill="#872f2f"/>
  <path d="M97.95,20.37v38.44c-.16,0-.32-.01-.48-.02V20.37h.48Z" fill="#872f2f"/>
  <path d="M98.89,20.37v38.49c-.16-.01-.32-.02-.48-.03V20.37h.48Z" fill="#872f2f"/>
  <path d="M99.61,20.37v38.52c-.11,0-.22-.01-.33-.02V20.37h.33Z" fill="#872f2f"/>
  <path d="M100.08,20.37v38.55c-.06,0-.11,0-.17-.01V20.37h.17Z" fill="#872f2f"/>
  <rect x="100.3" y="20.37" width=".12" height="38.57" fill="#872f2f"/>
  <path d="M113.7,46.82c-.16.18-.31.38-.44.58V1h.48v42.14c-.23.6-.35,1.23-.35,1.88s.1,1.22.31,1.8Z" fill="#07a"/>
  <path d="M114.71,41.53c-.18.2-.34.41-.48.63V1h.48v40.53Z" fill="#07a"/>
  <path d="M112.73,48.29c-.43.89-.66,1.88-.66,2.89,0,.72.12,1.45.37,2.15-.46.95-.69,1.96-.69,3.01,0,1.26.35,2.48.98,3.54v.67c-3.44-.71-7.51-1.29-12.25-1.6V7.44l12.25-6.43v47.28Z" fill="#07a"/>
  <path d="M115.66,37.13c-.19.22-.35.46-.48.71V1h.48v34.57c-.04.19-.06.4-.06.6s.02.39.06.57" fill="#07a"/>
  <path d="M116.38,34l.03.09s-.02.03-.03.04c-.13.14-.24.3-.34.46V1h.34v33Z" fill="#07a"/>
  <polygon points="116.69 33.81 116.68 33.82 116.68 1 116.85 1 116.85 33.67 116.69 33.81" fill="#07a"/>
  <polygon points="117.19 1 117.19 33.39 117.07 33.49 117.07 1 117.19 1" fill="#07a"/>
  <g>
    <g>
      <path d="M0,118.49h2.97c.87,0,1.57.27,1.99.7.33.33.54.81.54,1.31v.02c0,1.18-.88,1.86-2.07,2.02l2.33,3.02h-.67l-2.25-2.93H.53v2.93h-.53v-7.07ZM2.91,122.16c1.18,0,2.06-.6,2.06-1.62v-.02c0-.95-.75-1.54-2.03-1.54H.53v3.18h2.38Z" fill="#fff"/>
      <path d="M6.49,123v-.02c0-1.5,1.05-2.69,2.44-2.69s2.36,1.17,2.36,2.7c0,.09,0,.12-.01.2h-4.27c.09,1.28,1.01,2.03,2.02,2.03.8,0,1.34-.35,1.77-.81l.34.3c-.52.57-1.14.97-2.13.97-1.35,0-2.53-1.08-2.53-2.69ZM10.77,122.75c-.07-1.04-.67-2-1.85-2-1.02,0-1.81.86-1.9,2h3.75Z" fill="#fff"/>
      <path d="M12.77,124.24v-3.37h-.75v-.45h.75v-1.65h.5v1.65h1.81v.45h-1.81v3.32c0,.74.43,1,1.03,1,.25,0,.46-.05.76-.18v.46c-.26.12-.52.18-.84.18-.8,0-1.44-.43-1.44-1.41Z" fill="#fff"/>
      <path d="M16.3,118.39h.62v.68h-.62v-.68ZM16.36,120.41h.5v5.15h-.5v-5.15Z" fill="#fff"/>
      <path d="M18.56,120.41h.5v1.46c.4-.92,1.26-1.59,2.28-1.55v.55h-.05c-1.19,0-2.23.9-2.23,2.58v2.11h-.5v-5.15Z" fill="#fff"/>
      <path d="M21.75,123v-.02c0-1.5,1.05-2.69,2.44-2.69s2.36,1.17,2.36,2.7c0,.09,0,.12-.01.2h-4.27c.09,1.28,1.01,2.03,2.02,2.03.8,0,1.34-.35,1.77-.81l.34.3c-.52.57-1.14.97-2.13.97-1.35,0-2.53-1.08-2.53-2.69ZM26.02,122.75c-.07-1.04-.67-2-1.85-2-1.02,0-1.81.86-1.9,2h3.75Z" fill="#fff"/>
      <path d="M27.75,120.41h.5v.92c.33-.54.8-1.04,1.72-1.04s1.46.51,1.74,1.11c.33-.58.89-1.11,1.86-1.11,1.22,0,1.98.86,1.98,2.15v3.12h-.5v-3.06c0-1.11-.58-1.76-1.53-1.76-.87,0-1.63.67-1.63,1.82v3h-.5v-3.09c0-1.07-.59-1.73-1.5-1.73s-1.65.81-1.65,1.85v2.97h-.5v-5.15Z" fill="#fff"/>
      <path d="M36.76,123v-.02c0-1.5,1.05-2.69,2.44-2.69s2.36,1.17,2.36,2.7c0,.09,0,.12-.01.2h-4.27c.09,1.28,1.01,2.03,2.02,2.03.8,0,1.34-.35,1.77-.81l.34.3c-.52.57-1.14.97-2.13.97-1.35,0-2.53-1.08-2.53-2.69ZM41.03,122.75c-.07-1.04-.67-2-1.85-2-1.02,0-1.81.86-1.9,2h3.75Z" fill="#fff"/>
      <path d="M42.76,120.41h.5v.96c.34-.61.92-1.08,1.86-1.08,1.3,0,2.06.89,2.06,2.12v3.15h-.5v-3.06c0-1.06-.6-1.76-1.64-1.76s-1.79.77-1.79,1.84v2.98h-.5v-5.15Z" fill="#fff"/>
      <path d="M48.98,124.24v-3.37h-.75v-.45h.75v-1.65h.5v1.65h1.81v.45h-1.81v3.32c0,.74.43,1,1.03,1,.25,0,.46-.05.76-.18v.46c-.26.12-.52.18-.84.18-.8,0-1.44-.43-1.44-1.41Z" fill="#fff"/>
      <path d="M55.08,122.05v-.02c0-2,1.5-3.66,3.54-3.66,1.26,0,2.02.46,2.75,1.13l-.37.38c-.62-.6-1.32-1.04-2.38-1.04-1.7,0-2.98,1.38-2.98,3.16v.02c0,1.79,1.3,3.18,2.99,3.18,1.02,0,1.72-.39,2.43-1.1l.35.34c-.75.74-1.56,1.23-2.81,1.23-2.02,0-3.52-1.61-3.52-3.64Z" fill="#fff"/>
      <path d="M62.04,123.01v-.02c0-1.44,1.12-2.7,2.66-2.7s2.64,1.23,2.64,2.68v.02c0,1.44-1.12,2.7-2.66,2.7s-2.64-1.23-2.64-2.68ZM66.8,123.01v-.02c0-1.24-.93-2.23-2.12-2.23s-2.1,1-2.1,2.21v.02c0,1.24.93,2.23,2.12,2.23s2.1-1,2.1-2.21Z" fill="#fff"/>
      <path d="M68.6,120.41h.5v.92c.33-.54.8-1.04,1.72-1.04s1.46.51,1.74,1.11c.33-.58.89-1.11,1.86-1.11,1.22,0,1.98.86,1.98,2.15v3.12h-.5v-3.06c0-1.11-.58-1.76-1.53-1.76-.87,0-1.63.67-1.63,1.82v3h-.5v-3.09c0-1.07-.59-1.73-1.5-1.73s-1.65.81-1.65,1.85v2.97h-.5v-5.15Z" fill="#fff"/>
      <path d="M77.97,120.41h.5v.92c.33-.54.8-1.04,1.72-1.04s1.46.51,1.74,1.11c.33-.58.89-1.11,1.86-1.11,1.22,0,1.98.86,1.98,2.15v3.12h-.5v-3.06c0-1.11-.58-1.76-1.53-1.76-.87,0-1.63.67-1.63,1.82v3h-.5v-3.09c0-1.07-.59-1.73-1.5-1.73s-1.65.81-1.65,1.85v2.97h-.5v-5.15Z" fill="#fff"/>
      <path d="M87.23,123.56v-3.15h.49v3.06c0,1.06.6,1.76,1.64,1.76s1.79-.77,1.79-1.84v-2.98h.5v5.15h-.5v-.96c-.34.61-.92,1.08-1.86,1.08-1.3,0-2.06-.89-2.06-2.12Z" fill="#fff"/>
      <path d="M93.28,120.41h.5v.96c.34-.61.92-1.08,1.86-1.08,1.3,0,2.06.89,2.06,2.12v3.15h-.5v-3.06c0-1.06-.6-1.76-1.64-1.76s-1.79.77-1.79,1.84v2.98h-.5v-5.15Z" fill="#fff"/>
      <path d="M99.24,118.39h.62v.68h-.62v-.68ZM99.3,120.41h.5v5.15h-.5v-5.15Z" fill="#fff"/>
      <path d="M101.77,124.24v-3.37h-.75v-.45h.75v-1.65h.5v1.65h1.81v.45h-1.81v3.32c0,.74.43,1,1.03,1,.25,0,.46-.05.76-.18v.46c-.26.12-.52.18-.84.18-.8,0-1.44-.43-1.44-1.41Z" fill="#fff"/>
      <path d="M104.91,126.99l.17-.43c.27.13.5.19.88.19.54,0,.89-.31,1.27-1.21l-2.48-5.12h.58l2.14,4.61,1.86-4.61h.55l-2.23,5.33c-.46,1.08-.98,1.46-1.72,1.46-.39,0-.68-.07-1.02-.22Z" fill="#fff"/>
    </g>
    <g>
      <path d="M123.43,116.05c0,.44-.63,1.2-1.89,2.27-1.06.89-2.11,1.78-3.16,2.67-1.48,1.27-2.29,2.07-2.43,2.37-.03.08-.08.12-.14.12s-.09-.05-.07-.16c.09-.5,1.74-2.12,4.93-4.86.51-.45.93-.83,1.24-1.14.42-.42.63-.7.63-.86,0-.05-.03-.08-.09-.08-.2,0-.59.24-1.15.72-4.25,3.55-6.32,6.16-6.21,7.83.02.42.23.63.64.63s.79-.15,1.18-.44c.67-.51,1.1-.95,1.27-1.32-.16-.25-.23-.57-.23-.94,0-.14.02-.27.07-.4.22-.66.58-.99,1.07-.99.44,0,.65.21.65.64,0,.32-.18.75-.54,1.3-.39.59-.95,1.19-1.68,1.78-.59.48-1.25.73-1.99.73-1.03,0-1.54-.43-1.54-1.29,0-.91.54-2.16,1.64-3.74,1.01-1.45,2.16-2.75,3.43-3.91,1.34-1.2,2.32-1.77,2.95-1.73.31.02.58.14.82.35.26.25.47.4.61.45Z" fill="#fff"/>
      <path d="M126.3,122.38c-.09.7-.59,1.61-1.5,2.72.79.1,1.19.46,1.19,1.07,0,.18-.04.34-.13.49-.09.15-.17.23-.25.23-.05,0-.08-.07-.09-.21-.02-.38-.07-.65-.16-.79-.16-.21-.46-.31-.91-.31-.93,1.24-2.06,2.37-3.37,3.39-1.71,1.35-3.25,2.03-4.6,2.03-.37,0-.82-.15-1.33-.45-.51-.3-.77-.58-.77-.84,0-.33.49-.83,1.47-1.5.75-.49,1.48-.92,2.2-1.27.84-.41,1.7-.75,2.57-1.04.23-.09,1.11-.35,2.62-.79.23-.07.5-.41.79-1.02.28-.57.42-.99.42-1.25,0-.05-.02-.08-.05-.08-.02,0-.23.19-.63.56-1.53,1.44-2.56,2.16-3.08,2.16-.83,0-1.19-.22-1.1-.66.08-.32.35-.86.82-1.62-.11-.01-.07-.11.12-.3.87-.91,1.46-1.37,1.78-1.37s.66.15,1.1.46c-.44.37-.87.75-1.31,1.12-.48.46-.81.86-.98,1.19-.06.15-.09.27-.09.35,0,.2.21.14.64-.16s1.29-1.05,2.58-2.22c.41-.36.74-.54,1-.54.12,0,.27.06.44.18.03.02.12.12.28.3.09.12.2.18.33.18ZM123.24,125.47c-2.79.63-5.07,1.7-6.85,3.21-.58.5-.87.92-.87,1.29,0,.23.16.35.49.35s.77-.1,1.33-.31c1.04-.41,2.3-1.2,3.76-2.37,1.39-1.11,2.09-1.83,2.13-2.16Z" fill="#fff"/>
      <path d="M142.47,116.97c-.22.18-.43.26-.63.26-.03,0-.07-.02-.12-.07-.05-.04-.06-.07-.02-.08.48-.17.72-.4.72-.69,0-.2-.21-.35-.63-.46-.33-.09-.71-.13-1.14-.13-1.45,0-2.84.42-4.16,1.25-1.36.87-2.06,1.81-2.1,2.83-.03.66.42,1.25,1.36,1.76.86.47,1.32.74,1.4.81.47.34.7.73.7,1.15,0,.67-.44,1.23-1.33,1.67-.81.41-1.71.61-2.69.61-.76,0-1.39-.12-1.89-.35-.58-.26-.87-.63-.87-1.1s.19-.86.56-1.09c.11-.07.19-.1.23-.1.06,0,.09.03.09.08,0,.08-.04.15-.13.21-.09.07-.13.19-.13.36-.02.17,0,.29.05.38.25.47.93.71,2.03.71.93,0,1.75-.13,2.43-.4.79-.31,1.19-.62,1.19-.92,0-.22-.21-.47-.63-.76-.17-.11-.65-.38-1.44-.81-.79-.43-1.33-.76-1.62-.99-.53-.43-.81-.87-.84-1.33-.08-1.14.75-2.24,2.48-3.29,1.65-1,3.3-1.5,4.96-1.5.95,0,1.67.13,2.15.38.39.2.58.45.58.74s-.19.57-.56.86Z" fill="#fff"/>
      <path d="M143.25,123.78c-.37.4-.97.95-1.8,1.66-.41.29-.83.43-1.26.43-1.03,0-1.54-.42-1.54-1.27,0-.5.16-.96.47-1.38-.14-.05-.16-.13-.07-.21.31-.29.62-.58.91-.87.44-.38.76-.6.96-.64.06-.01.12-.02.19-.02.26,0,.63.14,1.1.41-1.64,1.15-2.44,2.23-2.41,3.23.01.22.15.33.4.33.23,0,.48-.08.72-.23.67-.41,1.42-1.01,2.24-1.81.22-.22.37-.33.44-.33.03,0,.05.02.05.05,0,.14-.13.36-.4.66ZM144.49,119.64c-.02.1-.16.19-.43.28-.27.09-.46.15-.57.2-.22.1-.37.2-.46.3-.09.1-.11.2-.06.31.05.09.11.14.19.15.08.01.1.04.07.1-.03.06-.08.08-.14.07-.31-.04-.58-.16-.81-.34s-.32-.38-.27-.58c.03-.12.09-.2.16-.23.08-.03.25-.06.53-.08.27-.02.76-.08,1.46-.16.03,0,.08-.02.15-.05s.12-.05.15-.05.04.03.02.1Z" fill="#fff"/>
      <path d="M149.28,123.04c-.06.42-.48,1.1-1.26,2.06.79.1,1.19.46,1.19,1.07,0,.18-.04.34-.13.49-.09.15-.17.23-.25.23-.05,0-.08-.07-.09-.21-.02-.38-.07-.65-.16-.79-.16-.21-.46-.31-.91-.31-.93,1.24-2.06,2.37-3.37,3.39-1.71,1.35-3.25,2.03-4.6,2.03-.37,0-.82-.15-1.33-.45-.51-.3-.77-.58-.77-.84,0-.33.49-.83,1.47-1.5.75-.49,1.48-.92,2.2-1.27.84-.41,1.7-.75,2.57-1.04.23-.09,1.11-.35,2.62-.79.53-.15.93-.79,1.19-1.91-1.67,1.46-2.92,2.17-3.76,2.13-.86-.04-1.29-.32-1.29-.82,0-.29.17-.63.51-1.02.47-.54,1.12-1.09,1.96-1.65,1.01-.67,1.85-1,2.52-1,.22.02.46.11.72.26.26.15.44.31.51.46.05.1.07.19.07.26,0,.12-.06.18-.16.18-.08,0-.15-.03-.21-.08-.06-.05-.25-.07-.56-.05-.3.03-.53.08-.7.13-.53.18-1.11.47-1.73.87-.62.41-1.11.82-1.47,1.25-.16.19-.23.37-.23.56,0,.21.1.31.3.31.17,0,.38-.07.63-.21,1.08-.58,2.2-1.41,3.37-2.47.83,0,1.21.24,1.14.73ZM146.45,125.47c-.84.12-1.93.47-3.26,1.05-1.48.64-2.69,1.33-3.61,2.08-.59.48-.89.92-.89,1.3,0,.27.19.41.56.41.31,0,.74-.1,1.29-.31,1.05-.41,2.3-1.2,3.77-2.37,1.39-1.11,2.1-1.83,2.13-2.16Z" fill="#fff"/>
      <path d="M156.08,124.04c-1.04,1.16-1.89,1.75-2.55,1.78-.87.04-1.3-.25-1.3-.89,0-.56.31-1.23.94-2.02.25-.33.37-.54.37-.62,0-.03-.02-.05-.05-.05-.27,0-.97.53-2.13,1.6-.7.65-1.12,1.19-1.26,1.63-.03.1-.15.15-.35.15-.22,0-.4-.06-.54-.17-.19-.13-.26-.3-.23-.51.02-.07.58-.95,1.71-2.65-.16-.09-.2-.19-.12-.3.06-.09.29-.38.68-.87.25-.14.62-.21,1.1-.21s.54.18.23.53c-1.26,1.5-1.89,2.35-1.89,2.54,0,.03.15-.09.44-.38.76-.74,1.78-1.53,3.06-2.39.05.02.32.06.82.11.36.03.54.14.54.31,0,.35-.41.88-1.24,1.59-.83.71-1.24,1.36-1.24,1.94,0,.22.09.33.28.33.11,0,.24-.03.4-.1.56-.24,1.18-.69,1.87-1.35.14-.13.26-.2.37-.2.08,0,.12.03.12.1,0,.03,0,.07-.02.1Z" fill="#fff"/>
      <path d="M163.25,123.13c-.11.17-.3.38-.56.64-1.27,1.31-2.16,1.92-2.68,1.85-.66-.1-.99-.33-.99-.71,0-.08,0-.15.03-.23.05-.17.17-.45.37-.84-.36.35-.81.74-1.36,1.17-.72.54-1.2.81-1.45.81-.34,0-.62-.12-.84-.36-.17-.2-.26-.4-.26-.61,0-.75.59-1.54,1.78-2.37,1.18-.83,2.27-1.24,3.27-1.23.34,0,.69.17,1.05.51.11.09.16.19.16.31,0,.08-.05.14-.16.18-.14-.13-.3-.21-.49-.23-.5-.08-1.32.22-2.45.9-1.14.68-1.87,1.32-2.2,1.94-.09.18-.14.32-.14.43,0,.2.17.21.51.03.65-.34,1.35-.81,2.08-1.4.73-.59,1.16-1.04,1.29-1.35.09-.09.27-.13.54-.13.2,0,.41.04.63.11.22.07.3.15.23.24-.79.83-1.28,1.49-1.45,1.96-.03.08-.05.14-.05.18,0,.12.07.18.21.18s.29-.05.44-.16c.16-.1.88-.73,2.17-1.87.12-.11.22-.16.28-.16.11,0,.12.07.02.21Z" fill="#fff"/>
      <path d="M170.87,120.18c.26,0,.4.04.4.12,0,.07-.07.13-.2.19-.13.06-.27.09-.41.09-1.14,0-2.44.04-3.9.12-.45.1-1.08.67-1.89,1.71-.72.92-1.16,1.61-1.33,2.06-.06.2-.09.36-.09.49,0,.27.13.41.4.41.19,0,.37-.05.56-.17.67-.41,1.42-1.01,2.24-1.81.22-.22.37-.33.44-.33.03,0,.05.02.05.05,0,.14-.14.36-.42.66-.36.4-.95.95-1.78,1.66-.41.29-.85.43-1.33.43-.86,0-1.29-.37-1.31-1.12-.02-.46.3-1.17.94-2.13.5-.76,1.03-1.44,1.59-2.04h-.98c-.23,0-.35-.06-.35-.17,0-.15.1-.22.3-.22h1.38c.14-.13.38-.42.72-.87.34-.45.51-.7.51-.75s-.03-.1-.08-.12-.1-.06-.15-.09c-.05-.03-.07-.07-.07-.1,0-.12.1-.17.3-.16.17.01.52.11,1.05.29s.81.28.84.28c-.39.4-.87.91-1.45,1.52h4.02Z" fill="#fff"/>
      <path d="M173.58,123.1c.25-.21.4-.31.44-.31.01,0,.02,0,.02.02,0,.17-.24.5-.72.99-.2.23-.55.57-1.03,1.02-.62.53-1.1.79-1.43.79-.47,0-.82-.08-1.06-.25s-.34-.36-.29-.59c.02-.15.22-.58.61-1.29-.45.41-.9.81-1.36,1.2-.76.67-1.3,1-1.61,1-.84,0-1.21-.22-1.1-.66.06-.27.37-.85.91-1.73-.06-.11-.06-.19,0-.25.97-1.01,1.6-1.52,1.89-1.52s.65.15,1.08.46c-.61.54-1.05.95-1.33,1.24-.51.52-.86.95-1.03,1.29-.08.15-.12.27-.12.35,0,.2.21.15.62-.15s1.01-.81,1.79-1.55c.92-.88,1.44-1.37,1.57-1.47.19-.15.38-.23.58-.23.29,0,.62.15.98.44-1.5,1.35-2.24,2.36-2.24,3.03,0,.18.06.26.19.26.09,0,.24-.06.44-.18.33-.22.71-.53,1.15-.92.36-.33.71-.66,1.05-1Z" fill="#fff"/>
      <path d="M178.42,123.78c-.78.8-1.21,1.24-1.29,1.3-.61.52-1.17.77-1.68.77-.41,0-.69-.09-.85-.28-.16-.19-.22-.4-.18-.64.08-.36.43-.84,1.05-1.43.25-.23.37-.38.37-.44,0-.06-.04-.08-.12-.08-.23.13-.53.2-.89.2s-.58-.1-.65-.3c-.2.23-.48.53-.84.91-.26.27-.75.72-1.45,1.35-.11.09-.21.13-.3.13s-.14-.04-.14-.12c0-.04.02-.09.07-.13.59-.52,1.16-1.05,1.71-1.6.4-.42.79-.98,1.14-1.68.26-.52.42-.88.47-1.1.73.21,1.1.47,1.1.79,0,.35-.45.76-1.36,1.24.12.14.28.21.47.21.28,0,.65-.16,1.12-.47.23-.22.51-.32.82-.32.44,0,.65.13.65.38,0,.05-.02.11-.07.17-1.45,1.41-2.17,2.32-2.17,2.74,0,.09.05.13.14.13.17,0,.36-.07.56-.2.48-.31,1.22-.94,2.22-1.89.22-.22.37-.33.44-.33.03,0,.05.02.05.05,0,.14-.13.36-.4.66Z" fill="#fff"/>
      <path d="M182.95,121.44c.42.09.63.27.63.54,0,.33-.25.64-.75.92-.19.11-.83.4-1.92.87-.78.33-1.22.6-1.33.81-.05.08-.11.11-.19.1-.06-.02-.08-.07-.05-.15.19-.37.66-.76,1.41-1.17.99-.53,1.55-.85,1.69-.97.19-.17.28-.31.28-.43,0-.14-.1-.21-.3-.21-.17,0-.38.06-.61.17-1.52.71-2.48,1.61-2.87,2.69-.05.13-.07.25-.07.36,0,.37.27.56.82.56.36,0,.72-.08,1.1-.23.44-.17.87-.45,1.29-.82.36-.32.61-.48.75-.48.03,0,.05.02.05.05,0,.14-.23.41-.7.82-.84.72-1.76,1.04-2.76.96-.89-.07-1.4-.42-1.54-1.07-.14-.65.27-1.41,1.24-2.28s1.89-1.31,2.78-1.3c.06.05.41.14,1.05.26Z" fill="#fff"/>
    </g>
  </g>
  <g>
    <path d="M64.82,59.35v3c-.19.05-.37.11-.55.17-.2.06-.4.13-.6.19v-3.8c.16.02.32.03.48.03.04.03.07.05.11.07.13.1.26.18.39.26.05.03.11.06.17.08Z" fill="#73b736"/>
    <path d="M71.68,54.09c-.32.56-.78.98-1.3,1.28,0,.59-.13,1.2-.45,1.75-.62,1.08-1.72,1.69-2.87,1.74-.06.01-.11.01-.17.01-.36,0-.72-.06-1.07-.17-.17-.05-.34-.12-.5-.21-.06-.02-.11-.05-.17-.08-.12-.07-.23-.14-.33-.23-.11-.08-.22-.17-.32-.27-.08,0-.16.03-.24.03h-.02c-.19,0-.38-.01-.57-.04-.17-.01-.34-.04-.5-.07-.17-.04-.34-.08-.5-.13-.11-.03-.22-.06-.32-.1-.67.66-1.57,1.02-2.48,1.02-.59,0-1.18-.15-1.73-.46-1.67-.97-2.25-3.11-1.28-4.78.13-.23.29-.44.46-.63-.53-1.02-.55-2.28.07-3.36.2-.33.45-.61.72-.85-.33-.93-.28-2,.25-2.92.65-1.13,1.83-1.75,3.03-1.75.6,0,1.2.15,1.75.47.5.29.89.68,1.18,1.14.01.02.03.04.04.06.27-.09.55-.14.84-.16.54-.3,1.14-.46,1.75-.46.04,0,.07,0,.11.01.55.01,1.1.15,1.61.45,1.39.8,2.01,2.41,1.63,3.89.03.02.07.03.1.04,1.67.97,2.24,3.11,1.28,4.78Z" fill="#73b736"/>
  </g>
  <g>
    <path d="M128.66,67.9c-.34.44-.96.52-1.4.19-.05-.04-2.59-1.92-8.24-3.77-.15-.05-.31-.1-.46-.15-.44-.14-.9-.28-1.37-.42-.04-.01-.08-.02-.12-.03-.07-.03-.15-.05-.22-.06-.06-.02-.11-.04-.17-.05-.1-.03-.2-.06-.3-.09-.11-.03-.23-.06-.34-.09-.13-.04-.25-.07-.38-.1-.16-.04-.32-.08-.48-.12-.15-.05-.31-.08-.47-.12-.16-.04-.32-.08-.48-.12-.16-.04-.32-.08-.49-.12-.16-.03-.32-.07-.48-.1-.17-.04-.35-.08-.53-.12-3.41-.73-7.48-1.35-12.25-1.67-.02,0-.04,0-.06-.01h-.12c-.07-.01-.15-.01-.22-.02-.06,0-.11,0-.17-.01-.1,0-.2-.01-.3-.02-.11,0-.22-.01-.33-.01-.13-.01-.26-.02-.39-.02-.16-.01-.32-.02-.48-.03-.15-.01-.3-.01-.46-.02-.16-.01-.32-.01-.48-.02-.16-.01-.33-.01-.5-.02-.16,0-.32-.01-.48-.01-.18-.01-.35-.02-.53-.02-1.8-.04-3.69-.05-5.67-.01-2.3.05-4.48.15-6.52.31h-.06s-.04,0-.06.01c-.07,0-.15.01-.22.01-.06.01-.11.01-.17.02-.1,0-.2,0-.3.02-.12.01-.23.02-.34.03-.13.01-.25.02-.38.03-.16.02-.32.03-.48.05-.16.01-.31.02-.47.04-.16.02-.32.03-.48.05-.16.01-.33.03-.49.05-.16.02-.32.03-.48.06-.18.01-.35.03-.53.05-4.95.58-9.01,1.43-12.25,2.34-.43.12-.84.24-1.24.36-.09.02-.18.05-.27.08-6.18,1.88-8.93,3.83-8.98,3.87-.17.13-.38.19-.58.19-.31,0-.62-.14-.81-.41-.33-.44-.23-1.06.21-1.39.19-.14,2.43-1.74,7.28-3.45.16-.06.33-.12.5-.18.16-.06.33-.11.5-.17.2-.06.4-.13.6-.19.18-.06.36-.12.55-.17.16-.06.33-.11.5-.16.16-.05.33-.1.5-.15.4-.11.81-.23,1.24-.34,3.29-.88,7.34-1.7,12.25-2.25.17-.02.35-.04.53-.06.16-.02.32-.04.48-.05.16-.02.33-.04.49-.05.16-.02.32-.03.48-.05.16-.01.31-.03.47-.04.16-.02.32-.03.48-.04.12-.02.25-.03.38-.04.11-.01.22-.01.34-.02.1,0,.2-.02.3-.03.05,0,.11-.01.17-.01.07-.01.14-.01.22-.02h.06s.04,0,.06,0c2.03-.14,4.19-.24,6.48-.29,1.99-.04,3.89-.04,5.71.01.18,0,.36.01.53.01.16.01.32.01.48.02.17,0,.34,0,.5,0,.16.01.32.02.48.02.16.01.31.02.46.02.16.01.32.02.48.03.13,0,.26.01.39.01.11.01.22.02.33.02.1.01.2.02.3.02.06.01.11.01.17.01.07.01.15.01.22.02h.12s.04.01.06.01c4.74.31,8.81.89,12.25,1.6.18.04.35.08.53.11.16.04.32.07.48.11.12.03.24.05.36.08.04.01.09.02.13.03.16.04.32.08.48.11.14.04.28.07.42.1-.15-.09-.29-.21-.42-.33-.17-.16-.34-.32-.48-.5-.19-.2-.35-.42-.49-.65-.19-.28-.35-.57-.48-.88-.33-.75-.51-1.56-.51-2.39s.18-1.66.51-2.42c.05-.11.11-.22.16-.33l.11-.2-.08-.2c-.08-.2-.14-.41-.19-.62-.13-.46-.19-.92-.19-1.39s.06-.97.19-1.44c.11-.43.27-.84.48-1.22.14-.27.3-.53.49-.77.13-.17.26-.33.41-.48l.07-.07.16-.17-.13-.3s-.02-.05-.03-.08c-.21-.52-.32-1.07-.32-1.63s.11-1.11.32-1.61c.12-.3.27-.59.47-.85.13-.21.3-.4.48-.59.1-.09.2-.19.31-.28l.07-.06.24-.2-.19-.36s-.04-.07-.05-.11c-.21-.42-.31-.85-.31-1.29s.11-.91.31-1.31c.09-.19.2-.37.34-.54.08-.1.17-.21.27-.3l.03-.03.17-.16.04-.04-.04-.1-.09-.22c-.03-.08-.06-.16-.08-.24-.05-.18-.08-.37-.08-.56,0-.2.03-.39.08-.57.04-.14.1-.28.17-.41.06-.12.13-.23.22-.33.03-.05.07-.1.12-.14.03-.04.07-.07.11-.11l1.56-1.34.61.63.87.89c.34.39.52.87.52,1.38,0,.27-.06.54-.16.8l-.13.32.24.23c.59.57.92,1.34.92,2.15,0,.48-.12.95-.36,1.4l-.19.36.31.26c1.01.84,1.58,2.05,1.58,3.33,0,.59-.12,1.16-.35,1.71l-.13.3.23.24c1.01,1.06,1.57,2.45,1.57,3.91,0,.68-.13,1.35-.38,2.01l-.08.21.11.19c.44.86.67,1.79.67,2.75,0,1.94-.96,3.77-2.56,4.89l-1.51.92-.58.36c.21.07.42.15.62.22h.01c.2.07.4.14.59.21,4.78,1.75,7,3.41,7.2,3.56.44.34.52.97.18,1.4Z" fill="#73b736"/>
    <path d="M116.37,33.97v.03s.01-.03.01-.03h-.01Z" fill="#872f2f"/>
  </g>
  <g>
    <path d="M25.47,84.24v.58c-.47,0-.85.1-1.14.3s-.57.58-.84,1.12c-.18.37-.46,1.25-.84,2.64l-5.02,17.29h-.53l-4.11-13.71-4.08,13.71h-.48l-5.35-17.81c-.4-1.33-.65-2.11-.76-2.36-.18-.4-.42-.7-.72-.89-.3-.2-.72-.29-1.24-.29v-.58h6.67v.58h-.32c-.47,0-.83.13-1.08.38-.25.25-.37.56-.37.92s.19,1.22.58,2.55l3.55,12.04,2.99-10.23-.53-1.8-.43-1.44c-.19-.53-.39-.99-.62-1.39-.12-.2-.26-.37-.42-.51-.22-.19-.44-.33-.67-.41-.17-.06-.43-.09-.8-.09v-.58h7.02v.58h-.48c-.5,0-.86.13-1.09.38s-.35.6-.35,1.03c0,.54.2,1.48.6,2.82l3.45,11.66,3.43-11.82c.39-1.31.58-2.21.58-2.72,0-.24-.06-.47-.19-.68-.13-.21-.29-.36-.48-.44-.34-.15-.78-.22-1.32-.22v-.58h5.38Z" fill="#fff"/>
    <path d="M26.4,96.66c0,2.15.43,3.84,1.32,5.06.89,1.22,1.93,1.83,3.12,1.83.8,0,1.49-.26,2.08-.78.59-.52,1.08-1.42,1.48-2.68l.41.32c-.19,1.45-.73,2.76-1.62,3.95s-2.01,1.78-3.36,1.78c-1.46,0-2.71-.68-3.75-2.03-1.04-1.35-1.56-3.18-1.56-5.46,0-2.48.53-4.41,1.6-5.8s2.41-2.08,4.02-2.08c1.36,0,2.48.54,3.36,1.61.88,1.07,1.32,2.5,1.32,4.29h-8.41ZM26.4,95.74h5.63c-.04-.93-.14-1.58-.28-1.96-.22-.59-.55-1.05-.99-1.39-.44-.34-.9-.51-1.38-.51-.74,0-1.39.34-1.97,1.02-.58.68-.92,1.63-1.02,2.84Z" fill="#fff"/>
    <path d="M40.62,83.2v19.22c0,.91.06,1.51.17,1.8.11.29.28.52.51.67.23.15.66.23,1.29.23v.57h-5.97v-.57c.56,0,.94-.07,1.14-.21.2-.14.36-.36.48-.68s.17-.92.17-1.82v-13.16c0-1.63-.03-2.64-.09-3.01-.06-.37-.16-.63-.3-.77-.14-.14-.31-.21-.53-.21-.23,0-.52.08-.88.25l-.23-.55,3.63-1.77h.6Z" fill="#fff"/>
    <path d="M48.18,83.2v19.22c0,.91.06,1.51.17,1.8.11.29.28.52.51.67.23.15.66.23,1.29.23v.57h-5.97v-.57c.56,0,.94-.07,1.14-.21.2-.14.36-.36.48-.68s.17-.92.17-1.82v-13.16c0-1.63-.03-2.64-.09-3.01-.06-.37-.16-.63-.3-.77-.14-.14-.31-.21-.53-.21-.23,0-.52.08-.88.25l-.23-.55,3.63-1.77h.6Z" fill="#fff"/>
    <path d="M55.75,90.77v11.64c0,.91.06,1.51.17,1.81.11.3.27.52.49.67.22.15.61.22,1.19.22v.57h-5.91v-.57c.59,0,.99-.07,1.2-.21.2-.14.37-.36.49-.68.12-.32.18-.92.18-1.82v-5.58c0-1.57-.04-2.59-.12-3.05-.06-.34-.16-.57-.29-.7s-.31-.2-.54-.2c-.25,0-.55.08-.9.24l-.19-.57,3.67-1.77h.58ZM54.65,83.2c.37,0,.69.16.95.47.26.31.39.69.39,1.13s-.13.82-.39,1.14c-.26.32-.58.47-.95.47s-.69-.16-.96-.47-.4-.7-.4-1.14.13-.82.39-1.13c.26-.31.58-.47.96-.47Z" fill="#fff"/>
    <path d="M62.66,93.84c1.43-2.05,2.79-3.07,4.08-3.07.66,0,1.24.2,1.71.59s.86,1.05,1.14,1.95c.2.63.29,1.6.29,2.91v6.18c0,.92.06,1.54.19,1.87.1.26.25.47.47.62s.62.22,1.2.22v.57h-6.02v-.57h.25c.57,0,.96-.1,1.19-.31.23-.21.38-.51.47-.91.04-.16.05-.65.05-1.49v-5.93c0-1.32-.14-2.28-.43-2.87-.29-.6-.77-.89-1.45-.89-1.05,0-2.1.69-3.15,2.06v7.64c0,.98.05,1.59.15,1.82.12.31.29.53.51.67.22.14.66.21,1.32.21v.57h-6.02v-.57h.27c.62,0,1.04-.19,1.26-.56s.33-1.09.33-2.14v-5.38c0-1.74-.03-2.8-.1-3.18s-.17-.64-.31-.78-.32-.21-.55-.21c-.25,0-.54.08-.89.24l-.2-.57,3.67-1.77h.57v3.07Z" fill="#fff"/>
    <path d="M75.97,100.41c-.74-.43-1.32-1.04-1.71-1.81-.4-.77-.6-1.63-.6-2.57,0-1.43.45-2.67,1.36-3.7s2.07-1.55,3.49-1.55c1.16,0,2.17.34,3.02,1.01h2.58c.38,0,.6.01.67.04.06.03.11.07.13.13.05.1.08.26.08.51,0,.27-.02.46-.07.57-.03.05-.07.09-.14.13-.07.03-.29.05-.67.05h-1.58c.5.76.74,1.73.74,2.91,0,1.35-.43,2.5-1.3,3.46-.87.96-2.03,1.44-3.49,1.44-.6,0-1.22-.11-1.85-.32-.39.4-.65.75-.79,1.05s-.21.56-.21.77c0,.18.07.35.22.52.15.17.43.29.86.36.25.04.87.08,1.86.11,1.82.05,3.01.13,3.55.22.82.14,1.48.5,1.97,1.09.49.59.74,1.32.74,2.18,0,1.19-.47,2.31-1.41,3.35-1.38,1.54-3.18,2.31-5.41,2.31-1.71,0-3.15-.46-4.33-1.38-.66-.53-1-1.08-1-1.64,0-.25.05-.51.15-.76.15-.39.46-.93.93-1.63.06-.09.51-.67,1.36-1.71-.46-.33-.79-.62-.98-.88-.19-.26-.29-.55-.29-.88,0-.37.13-.8.38-1.3.25-.5.83-1.2,1.75-2.1ZM75.84,105.69c-.42.54-.73,1.04-.94,1.5-.21.46-.32.89-.32,1.28,0,.51.26.95.77,1.33.88.65,2.17.98,3.84.98s2.77-.33,3.53-1c.76-.67,1.14-1.38,1.14-2.14,0-.55-.23-.94-.68-1.17-.46-.23-1.37-.37-2.74-.41-1.99-.06-3.53-.19-4.6-.36ZM78.28,91.53c-.66,0-1.2.31-1.65.93-.44.62-.66,1.58-.66,2.86,0,1.67.3,2.96.9,3.88.46.7,1.04,1.04,1.75,1.04s1.23-.3,1.66-.9c.43-.6.65-1.54.65-2.83,0-1.68-.31-2.99-.92-3.94-.45-.7-1.03-1.04-1.74-1.04Z" fill="#fff"/>
    <path d="M89.86,86.44v4.76h2.84v1.11h-2.84v9.4c0,.94.11,1.57.34,1.9.23.33.52.49.87.49.29,0,.58-.11.85-.32.27-.22.49-.54.64-.96h.52c-.31,1.03-.75,1.81-1.32,2.33-.57.52-1.15.78-1.75.78-.41,0-.81-.13-1.2-.4s-.68-.65-.86-1.16c-.19-.5-.28-1.27-.28-2.32v-9.74h-1.93v-.52c.49-.23.99-.62,1.5-1.18.51-.55.96-1.21,1.36-1.97.2-.4.49-1.13.85-2.2h.41Z" fill="#fff"/>
    <path d="M99.83,90.77c1.84,0,3.32.83,4.44,2.5.95,1.42,1.42,3.06,1.42,4.9,0,1.3-.26,2.61-.78,3.94-.52,1.33-1.24,2.33-2.16,3.01s-1.94,1.01-3.06,1.01c-1.83,0-3.29-.87-4.37-2.61-.91-1.47-1.37-3.11-1.37-4.94,0-1.33.28-2.65.83-3.96.55-1.31,1.28-2.28,2.19-2.91.9-.63,1.86-.94,2.87-.94ZM99.42,91.8c-.47,0-.94.17-1.42.5-.47.33-.86.92-1.15,1.75-.29.83-.44,1.9-.44,3.21,0,2.11.35,3.93,1.06,5.46s1.63,2.29,2.78,2.29c.86,0,1.57-.42,2.13-1.26s.84-2.29.84-4.35c0-2.57-.46-4.6-1.39-6.07-.63-1.01-1.43-1.52-2.41-1.52Z" fill="#fff"/>
    <path d="M111.03,93.84c1.43-2.05,2.79-3.07,4.08-3.07.66,0,1.24.2,1.71.59s.86,1.05,1.14,1.95c.2.63.29,1.6.29,2.91v6.18c0,.92.06,1.54.19,1.87.1.26.25.47.47.62s.62.22,1.2.22v.57h-6.02v-.57h.25c.57,0,.96-.1,1.19-.31.23-.21.38-.51.47-.91.04-.16.05-.65.05-1.49v-5.93c0-1.32-.14-2.28-.43-2.87-.29-.6-.77-.89-1.45-.89-1.05,0-2.1.69-3.15,2.06v7.64c0,.98.05,1.59.15,1.82.12.31.29.53.51.67.22.14.66.21,1.32.21v.57h-6.02v-.57h.27c.62,0,1.04-.19,1.26-.56s.33-1.09.33-2.14v-5.38c0-1.74-.03-2.8-.1-3.18s-.17-.64-.31-.78-.32-.21-.55-.21c-.25,0-.54.08-.89.24l-.2-.57,3.67-1.77h.57v3.07Z" fill="#fff"/>
    <path d="M152.02,84.24v.58c-.47,0-.85.1-1.14.3s-.57.58-.84,1.12c-.18.37-.46,1.25-.84,2.64l-5.02,17.29h-.53l-4.11-13.71-4.08,13.71h-.48l-5.35-17.81c-.4-1.33-.65-2.11-.76-2.36-.18-.4-.42-.7-.72-.89-.3-.2-.72-.29-1.24-.29v-.58h6.67v.58h-.32c-.47,0-.83.13-1.08.38-.25.25-.37.56-.37.92s.19,1.22.58,2.55l3.55,12.04,2.99-10.23-.53-1.8-.43-1.44c-.19-.53-.39-.99-.62-1.39-.12-.2-.26-.37-.42-.51-.22-.19-.44-.33-.67-.41-.17-.06-.43-.09-.8-.09v-.58h7.02v.58h-.48c-.5,0-.86.13-1.09.38s-.35.6-.35,1.03c0,.54.2,1.48.6,2.82l3.45,11.66,3.43-11.82c.39-1.31.58-2.21.58-2.72,0-.24-.06-.47-.19-.68-.13-.21-.29-.36-.48-.44-.34-.15-.78-.22-1.32-.22v-.58h5.38Z" fill="#fff"/>
    <path d="M152.95,96.66c0,2.15.43,3.84,1.32,5.06.89,1.22,1.93,1.83,3.12,1.83.8,0,1.49-.26,2.08-.78.59-.52,1.08-1.42,1.48-2.68l.41.32c-.19,1.45-.73,2.76-1.62,3.95s-2.01,1.78-3.36,1.78c-1.46,0-2.71-.68-3.75-2.03-1.04-1.35-1.56-3.18-1.56-5.46,0-2.48.53-4.41,1.6-5.8s2.41-2.08,4.02-2.08c1.36,0,2.48.54,3.36,1.61.88,1.07,1.32,2.5,1.32,4.29h-8.41ZM152.95,95.74h5.63c-.04-.93-.14-1.58-.28-1.96-.22-.59-.55-1.05-.99-1.39-.44-.34-.9-.51-1.38-.51-.74,0-1.39.34-1.97,1.02-.58.68-.92,1.63-1.02,2.84Z" fill="#fff"/>
    <path d="M170.85,90.77v4.94h-.44c-.34-1.55-.77-2.6-1.29-3.16-.53-.56-1.2-.84-2.01-.84-.62,0-1.12.2-1.5.58-.38.39-.57.82-.57,1.3,0,.59.14,1.1.42,1.52.27.43.83.89,1.67,1.38l1.94,1.12c1.8,1.04,2.7,2.42,2.7,4.13,0,1.32-.42,2.38-1.26,3.19s-1.77,1.21-2.81,1.21c-.74,0-1.59-.16-2.55-.47-.29-.11-.53-.16-.72-.16-.2,0-.36.14-.48.41h-.44v-5.17h.44c.25,1.48.72,2.59,1.42,3.34.7.75,1.48,1.12,2.35,1.12.61,0,1.11-.21,1.49-.64.39-.43.58-.94.58-1.54,0-.73-.21-1.34-.64-1.83-.43-.5-1.29-1.12-2.57-1.88-1.29-.76-2.13-1.44-2.52-2.06-.4-.6-.6-1.36-.6-2.28,0-1.19.34-2.19,1.03-2.99.69-.8,1.57-1.2,2.66-1.2.48,0,1.06.12,1.74.36.45.16.75.24.9.24.14,0,.25-.04.33-.11.08-.07.17-.24.28-.49h.44Z" fill="#fff"/>
    <path d="M177.11,86.44v4.76h2.84v1.11h-2.84v9.4c0,.94.11,1.57.34,1.9.23.33.52.49.87.49.29,0,.58-.11.85-.32.27-.22.49-.54.64-.96h.52c-.31,1.03-.75,1.81-1.32,2.33-.57.52-1.15.78-1.75.78-.41,0-.81-.13-1.2-.4s-.68-.65-.86-1.16c-.19-.5-.28-1.27-.28-2.32v-9.74h-1.93v-.52c.49-.23.99-.62,1.5-1.18.51-.55.96-1.21,1.36-1.97.2-.4.49-1.13.85-2.2h.41Z" fill="#fff"/>
  </g>
</svg>