<?xml version="1.0" encoding="UTF-8"?>
<svg id="a" data-name="Слой 1" xmlns="http://www.w3.org/2000/svg" xmlns:xlink="http://www.w3.org/1999/xlink" viewBox="0 0 183.58 134.74">
  <defs>
    <clipPath id="b">
      <polygon points="64.27 67.33 72.98 65.15 87.28 63.58 100.79 63.36 110.18 64.84 120.79 68.08 119.37 47.05 119.84 0 83.22 12.5 65.62 21.17 64.24 50.89 64.27 67.33" fill="none"/>
    </clipPath>
  </defs>
  <g clip-path="url(#b)">
    <g>
      <g>
        <polygon points="67.06 84.07 79.31 77.64 79.31 15.47 67.06 21.91 67.06 84.07" fill="#f7c634"/>
        <polygon points="79.84 81.55 80.32 78.63 80.32 15.46 79.84 15.47 79.84 81.55" fill="#f7c634"/>
        <polygon points="80.81 81.55 81.29 78.63 81.29 15.46 80.81 15.47 80.81 81.55" fill="#f7c634"/>
        <polygon points="81.76 81.55 82.24 78.63 82.24 15.46 81.76 15.47 81.76 81.55" fill="#f7c634"/>
        <polygon points="82.62 81.55 82.96 78.63 82.96 15.46 82.62 15.47 82.62 81.55" fill="#f7c634"/>
        <polygon points="83.26 81.55 83.43 78.63 83.43 15.46 83.26 15.47 83.26 81.55" fill="#f7c634"/>
        <polygon points="83.64 15.47 83.64 81.55 83.77 78.63 83.77 15.46 83.64 15.47" fill="#f7c634"/>
      </g>
      <g>
        <polygon points="83.71 82.58 95.96 77.1 95.96 24.12 83.71 29.6 83.71 82.58" fill="#872f2f"/>
        <polygon points="96.49 80.43 96.97 77.94 96.97 24.11 96.49 24.12 96.49 80.43" fill="#872f2f"/>
        <polygon points="97.47 80.43 97.94 77.94 97.94 24.11 97.47 24.12 97.47 80.43" fill="#872f2f"/>
        <polygon points="98.41 80.43 98.89 77.94 98.89 24.11 98.41 24.12 98.41 80.43" fill="#872f2f"/>
        <polygon points="99.27 80.43 99.61 77.94 99.61 24.11 99.27 24.12 99.27 80.43" fill="#872f2f"/>
        <polygon points="99.91 80.43 100.08 77.94 100.08 24.11 99.91 24.12 99.91 80.43" fill="#872f2f"/>
        <polygon points="100.3 24.12 100.3 80.43 100.42 77.94 100.42 24.11 100.3 24.12" fill="#872f2f"/>
      </g>
      <g>
        <polygon points="100.48 73.36 112.73 66.92 112.73 4.76 100.48 11.19 100.48 73.36" fill="#07a"/>
        <polygon points="113.26 70.83 113.73 67.91 113.73 4.74 113.26 4.75 113.26 70.83" fill="#07a"/>
        <polygon points="114.23 70.83 114.71 67.91 114.71 4.74 114.23 4.75 114.23 70.83" fill="#07a"/>
        <polygon points="115.18 70.83 115.66 67.91 115.66 4.74 115.18 4.75 115.18 70.83" fill="#07a"/>
        <polygon points="116.04 70.83 116.38 67.91 116.38 4.74 116.04 4.75 116.04 70.83" fill="#07a"/>
        <polygon points="116.68 70.83 116.85 67.91 116.85 4.74 116.68 4.75 116.68 70.83" fill="#07a"/>
        <polygon points="117.06 4.75 117.06 70.83 117.19 67.91 117.19 4.74 117.06 4.75" fill="#07a"/>
      </g>
    </g>
  </g>
  <g>
    <g>
      <path d="M0,122.24h2.97c.87,0,1.57.27,1.99.7.33.33.54.81.54,1.31v.02c0,1.18-.88,1.86-2.07,2.02l2.33,3.02h-.67l-2.25-2.93H.53v2.93h-.53v-7.07ZM2.91,125.9c1.18,0,2.06-.6,2.06-1.62v-.02c0-.95-.75-1.54-2.03-1.54H.53v3.18h2.38Z" fill="#231f20"/>
      <path d="M6.49,126.74v-.02c0-1.5,1.05-2.69,2.44-2.69s2.36,1.17,2.36,2.7c0,.09,0,.12-.01.2h-4.27c.09,1.28,1.01,2.03,2.02,2.03.8,0,1.34-.35,1.77-.81l.34.3c-.52.57-1.14.97-2.13.97-1.35,0-2.53-1.08-2.53-2.69ZM10.77,126.49c-.07-1.04-.67-2-1.85-2-1.02,0-1.81.86-1.9,2h3.75Z" fill="#231f20"/>
      <path d="M12.77,127.99v-3.37h-.75v-.45h.75v-1.65h.5v1.65h1.81v.45h-1.81v3.32c0,.74.43,1,1.03,1,.25,0,.46-.05.76-.18v.46c-.26.12-.52.18-.84.18-.8,0-1.44-.43-1.44-1.41Z" fill="#231f20"/>
      <path d="M16.3,122.14h.62v.68h-.62v-.68ZM16.36,124.16h.5v5.15h-.5v-5.15Z" fill="#231f20"/>
      <path d="M18.56,124.16h.5v1.46c.4-.92,1.26-1.59,2.28-1.55v.55h-.05c-1.19,0-2.23.9-2.23,2.58v2.11h-.5v-5.15Z" fill="#231f20"/>
      <path d="M21.75,126.74v-.02c0-1.5,1.05-2.69,2.44-2.69s2.36,1.17,2.36,2.7c0,.09,0,.12-.01.2h-4.27c.09,1.28,1.01,2.03,2.02,2.03.8,0,1.34-.35,1.77-.81l.34.3c-.52.57-1.14.97-2.13.97-1.35,0-2.53-1.08-2.53-2.69ZM26.02,126.49c-.07-1.04-.67-2-1.85-2-1.02,0-1.81.86-1.9,2h3.75Z" fill="#231f20"/>
      <path d="M27.75,124.16h.5v.92c.33-.54.8-1.04,1.72-1.04s1.46.51,1.74,1.11c.33-.58.89-1.11,1.86-1.11,1.22,0,1.98.86,1.98,2.15v3.12h-.5v-3.06c0-1.11-.58-1.76-1.53-1.76-.87,0-1.63.67-1.63,1.82v3h-.5v-3.09c0-1.07-.59-1.73-1.5-1.73s-1.65.81-1.65,1.85v2.97h-.5v-5.15Z" fill="#231f20"/>
      <path d="M36.76,126.74v-.02c0-1.5,1.05-2.69,2.44-2.69s2.36,1.17,2.36,2.7c0,.09,0,.12-.01.2h-4.27c.09,1.28,1.01,2.03,2.02,2.03.8,0,1.34-.35,1.77-.81l.34.3c-.52.57-1.14.97-2.13.97-1.35,0-2.53-1.08-2.53-2.69ZM41.03,126.49c-.07-1.04-.67-2-1.85-2-1.02,0-1.81.86-1.9,2h3.75Z" fill="#231f20"/>
      <path d="M42.76,124.16h.5v.96c.34-.61.92-1.08,1.86-1.08,1.3,0,2.06.89,2.06,2.12v3.15h-.5v-3.06c0-1.06-.6-1.76-1.64-1.76s-1.79.77-1.79,1.84v2.98h-.5v-5.15Z" fill="#231f20"/>
      <path d="M48.98,127.99v-3.37h-.75v-.45h.75v-1.65h.5v1.65h1.81v.45h-1.81v3.32c0,.74.43,1,1.03,1,.25,0,.46-.05.76-.18v.46c-.26.12-.52.18-.84.18-.8,0-1.44-.43-1.44-1.41Z" fill="#231f20"/>
      <path d="M55.08,125.79v-.02c0-2,1.5-3.66,3.54-3.66,1.26,0,2.02.46,2.75,1.13l-.37.38c-.62-.6-1.32-1.04-2.38-1.04-1.7,0-2.98,1.38-2.98,3.16v.02c0,1.79,1.3,3.18,2.99,3.18,1.02,0,1.72-.39,2.43-1.1l.35.34c-.75.74-1.56,1.23-2.81,1.23-2.02,0-3.52-1.61-3.52-3.64Z" fill="#231f20"/>
      <path d="M62.04,126.75v-.02c0-1.44,1.12-2.7,2.66-2.7s2.64,1.23,2.64,2.68v.02c0,1.44-1.12,2.7-2.66,2.7s-2.64-1.23-2.64-2.68ZM66.8,126.75v-.02c0-1.24-.93-2.23-2.12-2.23s-2.1,1-2.1,2.21v.02c0,1.24.93,2.23,2.12,2.23s2.1-1,2.1-2.21Z" fill="#231f20"/>
      <path d="M68.6,124.16h.5v.92c.33-.54.8-1.04,1.72-1.04s1.46.51,1.74,1.11c.33-.58.89-1.11,1.86-1.11,1.22,0,1.98.86,1.98,2.15v3.12h-.5v-3.06c0-1.11-.58-1.76-1.53-1.76-.87,0-1.63.67-1.63,1.82v3h-.5v-3.09c0-1.07-.59-1.73-1.5-1.73s-1.65.81-1.65,1.85v2.97h-.5v-5.15Z" fill="#231f20"/>
      <path d="M77.97,124.16h.5v.92c.33-.54.8-1.04,1.72-1.04s1.46.51,1.74,1.11c.33-.58.89-1.11,1.86-1.11,1.22,0,1.98.86,1.98,2.15v3.12h-.5v-3.06c0-1.11-.58-1.76-1.53-1.76-.87,0-1.63.67-1.63,1.82v3h-.5v-3.09c0-1.07-.59-1.73-1.5-1.73s-1.65.81-1.65,1.85v2.97h-.5v-5.15Z" fill="#231f20"/>
      <path d="M87.23,127.31v-3.15h.49v3.06c0,1.06.6,1.76,1.64,1.76s1.79-.77,1.79-1.84v-2.98h.5v5.15h-.5v-.96c-.34.61-.92,1.08-1.86,1.08-1.3,0-2.06-.89-2.06-2.12Z" fill="#231f20"/>
      <path d="M93.28,124.16h.5v.96c.34-.61.92-1.08,1.86-1.08,1.3,0,2.06.89,2.06,2.12v3.15h-.5v-3.06c0-1.06-.6-1.76-1.64-1.76s-1.79.77-1.79,1.84v2.98h-.5v-5.15Z" fill="#231f20"/>
      <path d="M99.24,122.14h.62v.68h-.62v-.68ZM99.3,124.16h.5v5.15h-.5v-5.15Z" fill="#231f20"/>
      <path d="M101.77,127.99v-3.37h-.75v-.45h.75v-1.65h.5v1.65h1.81v.45h-1.81v3.32c0,.74.43,1,1.03,1,.25,0,.46-.05.76-.18v.46c-.26.12-.52.18-.84.18-.8,0-1.44-.43-1.44-1.41Z" fill="#231f20"/>
      <path d="M104.91,130.73l.17-.43c.27.13.5.19.88.19.54,0,.89-.31,1.27-1.21l-2.48-5.12h.58l2.14,4.61,1.86-4.61h.55l-2.23,5.33c-.46,1.08-.98,1.46-1.72,1.46-.39,0-.68-.07-1.02-.22Z" fill="#231f20"/>
    </g>
    <g>
      <path d="M123.43,119.79c0,.44-.63,1.2-1.89,2.27-1.06.89-2.11,1.78-3.16,2.67-1.48,1.27-2.29,2.07-2.43,2.37-.03.08-.08.12-.14.12s-.09-.05-.07-.16c.09-.5,1.74-2.12,4.93-4.86.51-.45.93-.83,1.24-1.14.42-.42.63-.7.63-.86,0-.05-.03-.08-.09-.08-.2,0-.59.24-1.15.72-4.25,3.55-6.32,6.16-6.21,7.83.02.42.23.63.64.63s.79-.15,1.18-.44c.67-.51,1.1-.95,1.27-1.32-.16-.25-.23-.57-.23-.94,0-.14.02-.27.07-.4.22-.66.58-.99,1.07-.99.44,0,.65.21.65.64,0,.32-.18.75-.54,1.3-.39.59-.95,1.19-1.68,1.78-.59.48-1.25.73-1.99.73-1.03,0-1.54-.43-1.54-1.29,0-.91.54-2.16,1.64-3.74,1.01-1.45,2.16-2.75,3.43-3.91,1.34-1.2,2.32-1.77,2.95-1.73.31.02.58.14.82.35.26.25.47.4.61.45Z" fill="#231f20"/>
      <path d="M126.3,126.12c-.09.7-.59,1.61-1.5,2.72.79.1,1.19.46,1.19,1.07,0,.18-.04.34-.13.49-.09.15-.17.23-.25.23-.05,0-.08-.07-.09-.21-.02-.38-.07-.65-.16-.79-.16-.21-.46-.31-.91-.31-.93,1.24-2.06,2.37-3.37,3.39-1.71,1.35-3.25,2.03-4.6,2.03-.37,0-.82-.15-1.33-.45-.51-.3-.77-.58-.77-.84,0-.33.49-.83,1.47-1.5.75-.49,1.48-.92,2.2-1.27.84-.41,1.7-.75,2.57-1.04.23-.09,1.11-.35,2.62-.79.23-.07.5-.41.79-1.02.28-.57.42-.99.42-1.25,0-.05-.02-.08-.05-.08-.02,0-.23.19-.63.56-1.53,1.44-2.56,2.16-3.08,2.16-.83,0-1.19-.22-1.1-.66.08-.32.35-.86.82-1.62-.11-.01-.07-.11.12-.3.87-.91,1.46-1.37,1.78-1.37s.66.15,1.1.46c-.44.37-.87.75-1.31,1.12-.48.46-.81.86-.98,1.19-.06.15-.09.27-.09.35,0,.2.21.14.64-.16s1.29-1.05,2.58-2.22c.41-.36.74-.54,1-.54.12,0,.27.06.44.18.03.02.12.12.28.3.09.12.2.18.33.18ZM123.24,129.22c-2.79.63-5.07,1.7-6.85,3.21-.58.5-.87.92-.87,1.29,0,.23.16.35.49.35s.77-.1,1.33-.31c1.04-.41,2.3-1.2,3.76-2.37,1.39-1.11,2.09-1.83,2.13-2.16Z" fill="#231f20"/>
      <path d="M142.47,120.71c-.22.18-.43.26-.63.26-.03,0-.07-.02-.12-.07-.05-.04-.06-.07-.02-.08.48-.17.72-.4.72-.69,0-.2-.21-.35-.63-.46-.33-.09-.71-.13-1.14-.13-1.45,0-2.84.42-4.16,1.25-1.36.87-2.06,1.81-2.1,2.83-.03.66.42,1.25,1.36,1.76.86.47,1.32.74,1.4.81.47.34.7.73.7,1.15,0,.67-.44,1.23-1.33,1.67-.81.41-1.71.61-2.69.61-.76,0-1.39-.12-1.89-.35-.58-.26-.87-.63-.87-1.1s.19-.86.56-1.09c.11-.07.19-.1.23-.1.06,0,.09.03.09.08,0,.08-.04.15-.13.21-.09.07-.13.19-.13.36-.02.17,0,.29.05.38.25.47.93.71,2.03.71.93,0,1.75-.13,2.43-.4.79-.31,1.19-.62,1.19-.92,0-.22-.21-.47-.63-.76-.17-.11-.65-.38-1.44-.81-.79-.43-1.33-.76-1.62-.99-.53-.43-.81-.87-.84-1.33-.08-1.14.75-2.24,2.48-3.29,1.65-1,3.3-1.5,4.96-1.5.95,0,1.67.13,2.15.38.39.2.58.45.58.74s-.19.57-.56.86Z" fill="#231f20"/>
      <path d="M143.25,127.52c-.37.4-.97.95-1.8,1.66-.41.29-.83.43-1.26.43-1.03,0-1.54-.42-1.54-1.27,0-.5.16-.96.47-1.38-.14-.05-.16-.13-.07-.21.31-.29.62-.58.91-.87.44-.38.76-.6.96-.64.06-.01.12-.02.19-.02.26,0,.63.14,1.1.41-1.64,1.15-2.44,2.23-2.41,3.23.01.22.15.33.4.33.23,0,.48-.08.72-.23.67-.41,1.42-1.01,2.24-1.81.22-.22.37-.33.44-.33.03,0,.05.02.05.05,0,.14-.13.36-.4.66ZM144.49,123.38c-.02.1-.16.19-.43.28-.27.09-.46.15-.57.2-.22.1-.37.2-.46.3-.09.1-.11.2-.06.31.05.09.11.14.19.15.08.01.1.04.07.1-.03.06-.08.08-.14.07-.31-.04-.58-.16-.81-.34s-.32-.38-.27-.58c.03-.12.09-.2.16-.23.08-.03.25-.06.53-.08.27-.02.76-.08,1.46-.16.03,0,.08-.02.15-.05s.12-.05.15-.05.04.03.02.1Z" fill="#231f20"/>
      <path d="M149.28,126.78c-.06.42-.48,1.1-1.26,2.06.79.1,1.19.46,1.19,1.07,0,.18-.04.34-.13.49-.09.15-.17.23-.25.23-.05,0-.08-.07-.09-.21-.02-.38-.07-.65-.16-.79-.16-.21-.46-.31-.91-.31-.93,1.24-2.06,2.37-3.37,3.39-1.71,1.35-3.25,2.03-4.6,2.03-.37,0-.82-.15-1.33-.45-.51-.3-.77-.58-.77-.84,0-.33.49-.83,1.47-1.5.75-.49,1.48-.92,2.2-1.27.84-.41,1.7-.75,2.57-1.04.23-.09,1.11-.35,2.62-.79.53-.15.93-.79,1.19-1.91-1.67,1.46-2.92,2.17-3.76,2.13-.86-.04-1.29-.32-1.29-.82,0-.29.17-.63.51-1.02.47-.54,1.12-1.09,1.96-1.65,1.01-.67,1.85-1,2.52-1,.22.02.46.11.72.26.26.15.44.31.51.46.05.1.07.19.07.26,0,.12-.06.18-.16.18-.08,0-.15-.03-.21-.08-.06-.05-.25-.07-.56-.05-.3.03-.53.08-.7.13-.53.18-1.11.47-1.73.87-.62.41-1.11.82-1.47,1.25-.16.19-.23.37-.23.56,0,.21.1.31.3.31.17,0,.38-.07.63-.21,1.08-.58,2.2-1.41,3.37-2.47.83,0,1.21.24,1.14.73ZM146.45,129.22c-.84.12-1.93.47-3.26,1.05-1.48.64-2.69,1.33-3.61,2.08-.59.48-.89.92-.89,1.3,0,.27.19.41.56.41.31,0,.74-.1,1.29-.31,1.05-.41,2.3-1.2,3.77-2.37,1.39-1.11,2.1-1.83,2.13-2.16Z" fill="#231f20"/>
      <path d="M156.08,127.78c-1.04,1.16-1.89,1.75-2.55,1.78-.87.04-1.3-.25-1.3-.89,0-.56.31-1.23.94-2.02.25-.33.37-.54.37-.62,0-.03-.02-.05-.05-.05-.27,0-.97.53-2.13,1.6-.7.65-1.12,1.19-1.26,1.63-.03.1-.15.15-.35.15-.22,0-.4-.06-.54-.17-.19-.13-.26-.3-.23-.51.02-.07.58-.95,1.71-2.65-.16-.09-.2-.19-.12-.3.06-.09.29-.38.68-.87.25-.14.62-.21,1.1-.21s.54.18.23.53c-1.26,1.5-1.89,2.35-1.89,2.54,0,.03.15-.09.44-.38.76-.74,1.78-1.53,3.06-2.39.05.02.32.06.82.11.36.03.54.14.54.31,0,.35-.41.88-1.24,1.59-.83.71-1.24,1.36-1.24,1.94,0,.22.09.33.28.33.11,0,.24-.03.4-.1.56-.24,1.18-.69,1.87-1.35.14-.13.26-.2.37-.2.08,0,.12.03.12.1,0,.03,0,.07-.02.1Z" fill="#231f20"/>
      <path d="M163.25,126.88c-.11.17-.3.38-.56.64-1.27,1.31-2.16,1.92-2.68,1.85-.66-.1-.99-.33-.99-.71,0-.08,0-.15.03-.23.05-.17.17-.45.37-.84-.36.35-.81.74-1.36,1.17-.72.54-1.2.81-1.45.81-.34,0-.62-.12-.84-.36-.17-.2-.26-.4-.26-.61,0-.75.59-1.54,1.78-2.37,1.18-.83,2.27-1.24,3.27-1.23.34,0,.69.17,1.05.51.11.09.16.19.16.31,0,.08-.05.14-.16.18-.14-.13-.3-.21-.49-.23-.5-.08-1.32.22-2.45.9-1.14.68-1.87,1.32-2.2,1.94-.09.18-.14.32-.14.43,0,.2.17.21.51.03.65-.34,1.35-.81,2.08-1.4.73-.59,1.16-1.04,1.29-1.35.09-.09.27-.13.54-.13.2,0,.41.04.63.11.22.07.3.15.23.24-.79.83-1.28,1.49-1.45,1.96-.03.08-.05.14-.05.18,0,.12.07.18.21.18s.29-.05.44-.16c.16-.1.88-.73,2.17-1.87.12-.11.22-.16.28-.16.11,0,.12.07.02.21Z" fill="#231f20"/>
      <path d="M170.87,123.93c.26,0,.4.04.4.12,0,.07-.07.13-.2.19-.13.06-.27.09-.41.09-1.14,0-2.44.04-3.9.12-.45.1-1.08.67-1.89,1.71-.72.92-1.16,1.61-1.33,2.06-.06.2-.09.36-.09.49,0,.27.13.41.4.41.19,0,.37-.05.56-.17.67-.41,1.42-1.01,2.24-1.81.22-.22.37-.33.44-.33.03,0,.05.02.05.05,0,.14-.14.36-.42.66-.36.4-.95.95-1.78,1.66-.41.29-.85.43-1.33.43-.86,0-1.29-.37-1.31-1.12-.02-.46.3-1.17.94-2.13.5-.76,1.03-1.44,1.59-2.04h-.98c-.23,0-.35-.06-.35-.17,0-.15.1-.22.3-.22h1.38c.14-.13.38-.42.72-.87.34-.45.51-.7.51-.75s-.03-.1-.08-.12-.1-.06-.15-.09c-.05-.03-.07-.07-.07-.1,0-.12.1-.17.3-.16.17.01.52.11,1.05.29s.81.28.84.28c-.39.4-.87.91-1.45,1.52h4.02Z" fill="#231f20"/>
      <path d="M173.58,126.84c.25-.21.4-.31.44-.31.01,0,.02,0,.02.02,0,.17-.24.5-.72.99-.2.23-.55.57-1.03,1.02-.62.53-1.1.79-1.43.79-.47,0-.82-.08-1.06-.25s-.34-.36-.29-.59c.02-.15.22-.58.61-1.29-.45.41-.9.81-1.36,1.2-.76.67-1.3,1-1.61,1-.84,0-1.21-.22-1.1-.66.06-.27.37-.85.91-1.73-.06-.11-.06-.19,0-.25.97-1.01,1.6-1.52,1.89-1.52s.65.15,1.08.46c-.61.54-1.05.95-1.33,1.24-.51.52-.86.95-1.03,1.29-.08.15-.12.27-.12.35,0,.2.21.15.62-.15s1.01-.81,1.79-1.55c.92-.88,1.44-1.37,1.57-1.47.19-.15.38-.23.58-.23.29,0,.62.15.98.44-1.5,1.35-2.24,2.36-2.24,3.03,0,.18.06.26.19.26.09,0,.24-.06.44-.18.33-.22.71-.53,1.15-.92.36-.33.71-.66,1.05-1Z" fill="#231f20"/>
      <path d="M178.42,127.52c-.78.8-1.21,1.24-1.29,1.3-.61.52-1.17.77-1.68.77-.41,0-.69-.09-.85-.28-.16-.19-.22-.4-.18-.64.08-.36.43-.84,1.05-1.43.25-.23.37-.38.37-.44,0-.06-.04-.08-.12-.08-.23.13-.53.2-.89.2s-.58-.1-.65-.3c-.2.23-.48.53-.84.91-.26.27-.75.72-1.45,1.35-.11.09-.21.13-.3.13s-.14-.04-.14-.12c0-.04.02-.09.07-.13.59-.52,1.16-1.05,1.71-1.6.4-.42.79-.98,1.14-1.68.26-.52.42-.88.47-1.1.73.21,1.1.47,1.1.79,0,.35-.45.76-1.36,1.24.12.14.28.21.47.21.28,0,.65-.16,1.12-.47.23-.22.51-.32.82-.32.44,0,.65.13.65.38,0,.05-.02.11-.07.17-1.45,1.41-2.17,2.32-2.17,2.74,0,.09.05.13.14.13.17,0,.36-.07.56-.2.48-.31,1.22-.94,2.22-1.89.22-.22.37-.33.44-.33.03,0,.05.02.05.05,0,.14-.13.36-.4.66Z" fill="#231f20"/>
      <path d="M182.95,125.18c.42.09.63.27.63.54,0,.33-.25.64-.75.92-.19.11-.83.4-1.92.87-.78.33-1.22.6-1.33.81-.05.08-.11.11-.19.1-.06-.02-.08-.07-.05-.15.19-.37.66-.76,1.41-1.17.99-.53,1.55-.85,1.69-.97.19-.17.28-.31.28-.43,0-.14-.1-.21-.3-.21-.17,0-.38.06-.61.17-1.52.71-2.48,1.61-2.87,2.69-.05.13-.07.25-.07.36,0,.37.27.56.82.56.36,0,.72-.08,1.1-.23.44-.17.87-.45,1.29-.82.36-.32.61-.48.75-.48.03,0,.05.02.05.05,0,.14-.23.41-.7.82-.84.72-1.76,1.04-2.76.96-.89-.07-1.4-.42-1.54-1.07-.14-.65.27-1.41,1.24-2.28s1.89-1.31,2.78-1.3c.06.05.41.14,1.05.26Z" fill="#231f20"/>
    </g>
  </g>
  <g>
    <g>
      <rect x="63.16" y="54.03" width="2.15" height="13.46" fill="#3e2e13"/>
      <path d="M64.82,54.53v12.46h-1.15v-12.46h1.15M65.82,53.53h-3.15v14.46h3.15v-14.46h0Z" fill="#fff"/>
    </g>
    <g>
      <path d="M66.89,63.12c-.7,0-1.39-.19-2-.54-.19-.11-.38-.25-.57-.41-.03,0-.06,0-.09,0-.57,0-1.15-.09-1.77-.27-.72.61-1.65.96-2.6.96-.69,0-1.38-.18-1.98-.53-1.91-1.1-2.57-3.55-1.46-5.46.09-.15.19-.3.31-.45-.48-1.15-.4-2.44.23-3.53.15-.27.34-.51.58-.75-.28-1.03-.14-2.11.39-3.02.71-1.23,2.04-2,3.47-2,.7,0,1.39.19,2,.54.46.26.85.62,1.18,1.06.16-.04.33-.06.49-.08.58-.31,1.24-.47,1.89-.47.69,0,1.37.18,1.97.53,1.43.82,2.19,2.46,1.94,4.07.81.54,1.39,1.34,1.65,2.29.28,1.03.13,2.11-.4,3.03-.3.52-.72.96-1.24,1.31-.04.62-.21,1.2-.51,1.72-.71,1.23-2.04,2-3.47,2h0Z" fill="#73b736"/>
      <path d="M61.39,47.61c.59,0,1.2.15,1.75.47.52.3.92.72,1.22,1.2.28-.09.56-.14.85-.16.53-.3,1.14-.46,1.75-.46s1.18.15,1.72.46c1.39.8,2,2.41,1.63,3.89.03.02.06.03.1.04,1.67.97,2.25,3.11,1.28,4.78-.32.55-.78.98-1.3,1.27,0,.6-.13,1.2-.45,1.76-.65,1.12-1.82,1.75-3.03,1.75-.59,0-1.2-.15-1.75-.47-.24-.14-.46-.31-.65-.5-.09,0-.17.03-.26.03-.67,0-1.3-.13-1.89-.34-.67.66-1.56,1.02-2.47,1.02-.59,0-1.18-.15-1.73-.47-1.67-.97-2.25-3.11-1.28-4.78.13-.23.29-.43.47-.62-.53-1.02-.55-2.29.07-3.36.19-.33.44-.61.72-.86-.33-.93-.28-2,.25-2.92.65-1.12,1.82-1.75,3.03-1.75M61.39,46.61c-1.6,0-3.1.86-3.9,2.25-.55.95-.72,2.06-.5,3.13-.18.21-.34.42-.47.65-.66,1.14-.78,2.48-.36,3.7-.06.09-.12.19-.18.28-1.24,2.15-.5,4.91,1.65,6.15.68.39,1.45.6,2.23.6.97,0,1.93-.33,2.71-.91.54.14,1.06.22,1.57.22.16.13.33.24.49.34.68.39,1.46.6,2.25.6,1.6,0,3.1-.86,3.9-2.25.3-.52.49-1.09.56-1.7.49-.36.89-.81,1.19-1.33,1.14-1.97.61-4.46-1.15-5.81.14-1.71-.71-3.39-2.22-4.27-.68-.39-1.45-.6-2.22-.6-.7,0-1.4.17-2.04.48-.05,0-.09.01-.14.02-.33-.38-.71-.7-1.13-.95-.68-.39-1.46-.6-2.25-.6h0Z" fill="#fff"/>
    </g>
  </g>
  <g>
    <path d="M124.48,57.11c.26-.68.41-1.42.41-2.19,0-1.65-.65-3.14-1.71-4.25.25-.59.39-1.23.39-1.91,0-1.5-.7-2.82-1.76-3.71.26-.49.42-1.04.42-1.63,0-.99-.41-1.87-1.07-2.51.12-.31.2-.64.2-.99,0-.74-.31-1.41-.8-1.88h0s-1.66-1.7-1.66-1.7l-1.93,1.64s0,0,0,0c-.53.48-.87,1.17-.87,1.94,0,.35.07.68.2.99-.66.64-1.07,1.52-1.07,2.51,0,.59.16,1.14.42,1.63-1.07.89-1.77,2.21-1.77,3.71,0,.68.14,1.32.39,1.91-1.06,1.11-1.71,2.6-1.71,4.25,0,.77.15,1.51.41,2.19-.46.89-.73,1.9-.73,2.97,0,2.18,1.08,4.1,2.72,5.27.03.03.06.05.09.07.02.01.04.03.06.04,0,0,.01,0,.01,0h.02c.29.21.6.37.93.52l2.83,1.55,3.23-1.96s.11-.07.2-.13c0,0,0,0,.01,0,.03-.02.05-.04.08-.06,1.67-1.17,2.77-3.11,2.77-5.31,0-1.07-.27-2.08-.73-2.97Z" fill="#73b736"/>
    <path d="M118.93,68.12l-3.08-1.69c-.32-.14-.66-.33-.96-.53l-.22-.16c-1.81-1.29-2.91-3.42-2.91-5.66,0-1.05.23-2.06.68-3.01-.24-.7-.36-1.43-.36-2.16,0-1.61.58-3.14,1.63-4.36-.21-.58-.31-1.18-.31-1.8,0-1.45.6-2.82,1.65-3.83-.21-.49-.31-1-.31-1.51,0-.98.35-1.9,1-2.64-.08-.28-.12-.57-.12-.86,0-.76.29-1.51.8-2.08l-.04-.12.32-.16,2.24-1.9,2.13,2.18c.52.58.8,1.31.8,2.09,0,.29-.04.58-.12.86.64.73,1,1.65,1,2.64,0,.51-.1,1.02-.31,1.51,1.06,1.01,1.65,2.39,1.65,3.83,0,.62-.11,1.22-.31,1.8,1.05,1.21,1.63,2.75,1.63,4.36,0,.73-.12,1.45-.36,2.16.45.94.68,1.96.68,3.01,0,2.27-1.11,4.41-2.98,5.72l-.25.17-3.55,2.15ZM120.34,38.53l-1.48-1.52-1.56,1.33c-.45.41-.7.97-.7,1.57,0,.27.05.54.16.8l.13.31-.24.23c-.59.57-.92,1.34-.92,2.15,0,.47.12.94.36,1.4l.19.36-.31.26c-1.01.84-1.58,2.05-1.58,3.33,0,.59.12,1.17.35,1.71l.13.3-.23.24c-1.01,1.06-1.57,2.45-1.57,3.9,0,.68.13,1.36.38,2.01l.08.21-.1.2c-.45.86-.67,1.78-.67,2.74,0,1.92.94,3.74,2.51,4.86l-.2.47.28-.41.09.06c.26.17.55.33.85.47l2.61,1.43,3.25-1.98c1.6-1.12,2.56-2.95,2.56-4.9,0-.96-.23-1.89-.67-2.74l-.1-.2.08-.21c.25-.65.38-1.33.38-2.01,0-1.46-.56-2.84-1.57-3.9l-.23-.24.13-.3c.23-.55.35-1.12.35-1.71,0-1.28-.58-2.49-1.58-3.33l-.31-.26.19-.36c.24-.45.36-.92.36-1.4,0-.82-.33-1.58-.92-2.15l-.24-.23.13-.31c.11-.26.16-.53.16-.8,0-.51-.18-1-.52-1.38" fill="#fff"/>
  </g>
  <path d="M55.98,72.06c-.31,0-.61-.14-.81-.41-.33-.44-.23-1.07.21-1.4.4-.3,10.14-7.26,34.86-7.77,27.09-.56,37.79,7.42,38.23,7.77.44.34.52.96.18,1.4-.34.44-.96.52-1.4.18-.1-.08-10.66-7.89-36.97-7.35-23.99.5-33.62,7.32-33.72,7.39-.18.13-.38.19-.59.19Z" fill="#73b736"/>
  <g>
    <path d="M25.47,87.98v.58c-.47,0-.85.1-1.14.3s-.57.58-.84,1.12c-.18.37-.46,1.25-.84,2.64l-5.02,17.29h-.53l-4.11-13.71-4.08,13.71h-.48l-5.35-17.81c-.4-1.33-.65-2.11-.76-2.36-.18-.4-.42-.7-.72-.89-.3-.2-.72-.29-1.24-.29v-.58h6.67v.58h-.32c-.47,0-.83.13-1.08.38-.25.25-.37.56-.37.92s.19,1.22.58,2.55l3.55,12.04,2.99-10.23-.53-1.8-.43-1.44c-.19-.53-.39-.99-.62-1.39-.12-.2-.26-.37-.42-.51-.22-.19-.44-.33-.67-.41-.17-.06-.43-.09-.8-.09v-.58h7.02v.58h-.48c-.5,0-.86.13-1.09.38s-.35.6-.35,1.03c0,.54.2,1.48.6,2.82l3.45,11.66,3.43-11.82c.39-1.31.58-2.21.58-2.72,0-.24-.06-.47-.19-.68-.13-.21-.29-.36-.48-.44-.34-.15-.78-.22-1.32-.22v-.58h5.38Z" fill="#231f20"/>
    <path d="M26.4,100.4c0,2.15.43,3.84,1.32,5.06.89,1.22,1.93,1.83,3.12,1.83.8,0,1.49-.26,2.08-.78.59-.52,1.08-1.42,1.48-2.68l.41.32c-.19,1.45-.73,2.76-1.62,3.95s-2.01,1.78-3.36,1.78c-1.46,0-2.71-.68-3.75-2.03-1.04-1.35-1.56-3.18-1.56-5.46,0-2.48.53-4.41,1.6-5.8s2.41-2.08,4.02-2.08c1.36,0,2.48.54,3.36,1.61.88,1.07,1.32,2.5,1.32,4.29h-8.41ZM26.4,99.48h5.63c-.04-.93-.14-1.58-.28-1.96-.22-.59-.55-1.05-.99-1.39-.44-.34-.9-.51-1.38-.51-.74,0-1.39.34-1.97,1.02-.58.68-.92,1.63-1.02,2.84Z" fill="#231f20"/>
    <path d="M40.62,86.94v19.22c0,.91.06,1.51.17,1.8.11.29.28.52.51.67.23.15.66.23,1.29.23v.57h-5.97v-.57c.56,0,.94-.07,1.14-.21.2-.14.36-.36.48-.68s.17-.92.17-1.82v-13.16c0-1.63-.03-2.64-.09-3.01-.06-.37-.16-.63-.3-.77-.14-.14-.31-.21-.53-.21-.23,0-.52.08-.88.25l-.23-.55,3.63-1.77h.6Z" fill="#231f20"/>
    <path d="M48.18,86.94v19.22c0,.91.06,1.51.17,1.8.11.29.28.52.51.67.23.15.66.23,1.29.23v.57h-5.97v-.57c.56,0,.94-.07,1.14-.21.2-.14.36-.36.48-.68s.17-.92.17-1.82v-13.16c0-1.63-.03-2.64-.09-3.01-.06-.37-.16-.63-.3-.77-.14-.14-.31-.21-.53-.21-.23,0-.52.08-.88.25l-.23-.55,3.63-1.77h.6Z" fill="#231f20"/>
    <path d="M55.75,94.52v11.64c0,.91.06,1.51.17,1.81.11.3.27.52.49.67.22.15.61.22,1.19.22v.57h-5.91v-.57c.59,0,.99-.07,1.2-.21.2-.14.37-.36.49-.68.12-.32.18-.92.18-1.82v-5.58c0-1.57-.04-2.59-.12-3.05-.06-.34-.16-.57-.29-.7s-.31-.2-.54-.2c-.25,0-.55.08-.9.24l-.19-.57,3.67-1.77h.58ZM54.65,86.94c.37,0,.69.16.95.47.26.31.39.69.39,1.13s-.13.82-.39,1.14c-.26.32-.58.47-.95.47s-.69-.16-.96-.47-.4-.7-.4-1.14.13-.82.39-1.13c.26-.31.58-.47.96-.47Z" fill="#231f20"/>
    <path d="M62.66,97.59c1.43-2.05,2.79-3.07,4.08-3.07.66,0,1.24.2,1.71.59s.86,1.05,1.14,1.95c.2.63.29,1.6.29,2.91v6.18c0,.92.06,1.54.19,1.87.1.26.25.47.47.62s.62.22,1.2.22v.57h-6.02v-.57h.25c.57,0,.96-.1,1.19-.31.23-.21.38-.51.47-.91.04-.16.05-.65.05-1.49v-5.93c0-1.32-.14-2.28-.43-2.87-.29-.6-.77-.89-1.45-.89-1.05,0-2.1.69-3.15,2.06v7.64c0,.98.05,1.59.15,1.82.12.31.29.53.51.67.22.14.66.21,1.32.21v.57h-6.02v-.57h.27c.62,0,1.04-.19,1.26-.56s.33-1.09.33-2.14v-5.38c0-1.74-.03-2.8-.1-3.18s-.17-.64-.31-.78-.32-.21-.55-.21c-.25,0-.54.08-.89.24l-.2-.57,3.67-1.77h.57v3.07Z" fill="#231f20"/>
    <path d="M75.97,104.15c-.74-.43-1.32-1.04-1.71-1.81-.4-.77-.6-1.63-.6-2.57,0-1.43.45-2.67,1.36-3.7s2.07-1.55,3.49-1.55c1.16,0,2.17.34,3.02,1.01h2.58c.38,0,.6.01.67.04.06.03.11.07.13.13.05.1.08.26.08.51,0,.27-.02.46-.07.57-.03.05-.07.09-.14.13-.07.03-.29.05-.67.05h-1.58c.5.76.74,1.73.74,2.91,0,1.35-.43,2.5-1.3,3.46-.87.96-2.03,1.44-3.49,1.44-.6,0-1.22-.11-1.85-.32-.39.4-.65.75-.79,1.05s-.21.56-.21.77c0,.18.07.35.22.52.15.17.43.29.86.36.25.04.87.08,1.86.11,1.82.05,3.01.13,3.55.22.82.14,1.48.5,1.97,1.09.49.59.74,1.32.74,2.18,0,1.19-.47,2.31-1.41,3.35-1.38,1.54-3.18,2.31-5.41,2.31-1.71,0-3.15-.46-4.33-1.38-.66-.53-1-1.08-1-1.64,0-.25.05-.51.15-.76.15-.39.46-.93.93-1.63.06-.09.51-.67,1.36-1.71-.46-.33-.79-.62-.98-.88-.19-.26-.29-.55-.29-.88,0-.37.13-.8.38-1.3.25-.5.83-1.2,1.75-2.1ZM75.84,109.43c-.42.54-.73,1.04-.94,1.5-.21.46-.32.89-.32,1.28,0,.51.26.95.77,1.33.88.65,2.17.98,3.84.98s2.77-.33,3.53-1c.76-.67,1.14-1.38,1.14-2.14,0-.55-.23-.94-.68-1.17-.46-.23-1.37-.37-2.74-.41-1.99-.06-3.53-.19-4.6-.36ZM78.28,95.28c-.66,0-1.2.31-1.65.93-.44.62-.66,1.58-.66,2.86,0,1.67.3,2.96.9,3.88.46.7,1.04,1.04,1.75,1.04s1.23-.3,1.66-.9c.43-.6.65-1.54.65-2.83,0-1.68-.31-2.99-.92-3.94-.45-.7-1.03-1.04-1.74-1.04Z" fill="#231f20"/>
    <path d="M89.86,90.18v4.76h2.84v1.11h-2.84v9.4c0,.94.11,1.57.34,1.9.23.33.52.49.87.49.29,0,.58-.11.85-.32.27-.22.49-.54.64-.96h.52c-.31,1.03-.75,1.81-1.32,2.33-.57.52-1.15.78-1.75.78-.41,0-.81-.13-1.2-.4s-.68-.65-.86-1.16c-.19-.5-.28-1.27-.28-2.32v-9.74h-1.93v-.52c.49-.23.99-.62,1.5-1.18.51-.55.96-1.21,1.36-1.97.2-.4.49-1.13.85-2.2h.41Z" fill="#231f20"/>
    <path d="M99.83,94.52c1.84,0,3.32.83,4.44,2.5.95,1.42,1.42,3.06,1.42,4.9,0,1.3-.26,2.61-.78,3.94-.52,1.33-1.24,2.33-2.16,3.01s-1.94,1.01-3.06,1.01c-1.83,0-3.29-.87-4.37-2.61-.91-1.47-1.37-3.11-1.37-4.94,0-1.33.28-2.65.83-3.96.55-1.31,1.28-2.28,2.19-2.91.9-.63,1.86-.94,2.87-.94ZM99.42,95.54c-.47,0-.94.17-1.42.5-.47.33-.86.92-1.15,1.75-.29.83-.44,1.9-.44,3.21,0,2.11.35,3.93,1.06,5.46s1.63,2.29,2.78,2.29c.86,0,1.57-.42,2.13-1.26s.84-2.29.84-4.35c0-2.57-.46-4.6-1.39-6.07-.63-1.01-1.43-1.52-2.41-1.52Z" fill="#231f20"/>
    <path d="M111.03,97.59c1.43-2.05,2.79-3.07,4.08-3.07.66,0,1.24.2,1.71.59s.86,1.05,1.14,1.95c.2.63.29,1.6.29,2.91v6.18c0,.92.06,1.54.19,1.87.1.26.25.47.47.62s.62.22,1.2.22v.57h-6.02v-.57h.25c.57,0,.96-.1,1.19-.31.23-.21.38-.51.47-.91.04-.16.05-.65.05-1.49v-5.93c0-1.32-.14-2.28-.43-2.87-.29-.6-.77-.89-1.45-.89-1.05,0-2.1.69-3.15,2.06v7.64c0,.98.05,1.59.15,1.82.12.31.29.53.51.67.22.14.66.21,1.32.21v.57h-6.02v-.57h.27c.62,0,1.04-.19,1.26-.56s.33-1.09.33-2.14v-5.38c0-1.74-.03-2.8-.1-3.18s-.17-.64-.31-.78-.32-.21-.55-.21c-.25,0-.54.08-.89.24l-.2-.57,3.67-1.77h.57v3.07Z" fill="#231f20"/>
    <path d="M152.02,87.98v.58c-.47,0-.85.1-1.14.3s-.57.58-.84,1.12c-.18.37-.46,1.25-.84,2.64l-5.02,17.29h-.53l-4.11-13.71-4.08,13.71h-.48l-5.35-17.81c-.4-1.33-.65-2.11-.76-2.36-.18-.4-.42-.7-.72-.89-.3-.2-.72-.29-1.24-.29v-.58h6.67v.58h-.32c-.47,0-.83.13-1.08.38-.25.25-.37.56-.37.92s.19,1.22.58,2.55l3.55,12.04,2.99-10.23-.53-1.8-.43-1.44c-.19-.53-.39-.99-.62-1.39-.12-.2-.26-.37-.42-.51-.22-.19-.44-.33-.67-.41-.17-.06-.43-.09-.8-.09v-.58h7.02v.58h-.48c-.5,0-.86.13-1.09.38s-.35.6-.35,1.03c0,.54.2,1.48.6,2.82l3.45,11.66,3.43-11.82c.39-1.31.58-2.21.58-2.72,0-.24-.06-.47-.19-.68-.13-.21-.29-.36-.48-.44-.34-.15-.78-.22-1.32-.22v-.58h5.38Z" fill="#231f20"/>
    <path d="M152.95,100.4c0,2.15.43,3.84,1.32,5.06.89,1.22,1.93,1.83,3.12,1.83.8,0,1.49-.26,2.08-.78.59-.52,1.08-1.42,1.48-2.68l.41.32c-.19,1.45-.73,2.76-1.62,3.95s-2.01,1.78-3.36,1.78c-1.46,0-2.71-.68-3.75-2.03-1.04-1.35-1.56-3.18-1.56-5.46,0-2.48.53-4.41,1.6-5.8s2.41-2.08,4.02-2.08c1.36,0,2.48.54,3.36,1.61.88,1.07,1.32,2.5,1.32,4.29h-8.41ZM152.95,99.48h5.63c-.04-.93-.14-1.58-.28-1.96-.22-.59-.55-1.05-.99-1.39-.44-.34-.9-.51-1.38-.51-.74,0-1.39.34-1.97,1.02-.58.68-.92,1.63-1.02,2.84Z" fill="#231f20"/>
    <path d="M170.85,94.52v4.94h-.44c-.34-1.55-.77-2.6-1.29-3.16-.53-.56-1.2-.84-2.01-.84-.62,0-1.12.2-1.5.58-.38.39-.57.82-.57,1.3,0,.59.14,1.1.42,1.52.27.43.83.89,1.67,1.38l1.94,1.12c1.8,1.04,2.7,2.42,2.7,4.13,0,1.32-.42,2.38-1.26,3.19s-1.77,1.21-2.81,1.21c-.74,0-1.59-.16-2.55-.47-.29-.11-.53-.16-.72-.16-.2,0-.36.14-.48.41h-.44v-5.17h.44c.25,1.48.72,2.59,1.42,3.34.7.75,1.48,1.12,2.35,1.12.61,0,1.11-.21,1.49-.64.39-.43.58-.94.58-1.54,0-.73-.21-1.34-.64-1.83-.43-.5-1.29-1.12-2.57-1.88-1.29-.76-2.13-1.44-2.52-2.06-.4-.6-.6-1.36-.6-2.28,0-1.19.34-2.19,1.03-2.99.69-.8,1.57-1.2,2.66-1.2.48,0,1.06.12,1.74.36.45.16.75.24.9.24.14,0,.25-.04.33-.11.08-.07.17-.24.28-.49h.44Z" fill="#231f20"/>
    <path d="M177.11,90.18v4.76h2.84v1.11h-2.84v9.4c0,.94.11,1.57.34,1.9.23.33.52.49.87.49.29,0,.58-.11.85-.32.27-.22.49-.54.64-.96h.52c-.31,1.03-.75,1.81-1.32,2.33-.57.52-1.15.78-1.75.78-.41,0-.81-.13-1.2-.4s-.68-.65-.86-1.16c-.19-.5-.28-1.27-.28-2.32v-9.74h-1.93v-.52c.49-.23.99-.62,1.5-1.18.51-.55.96-1.21,1.36-1.97.2-.4.49-1.13.85-2.2h.41Z" fill="#231f20"/>
  </g>
</svg>