<svg fill="currentColor" xmlns="http://www.w3.org/2000/svg" viewBox="0 0 61.56 50">
    <path d="M55.23,12.46c0,.55,0,1.09,0,1.64C55.27,30.78,42.58,50,19.38,50A35.71,35.71,0,0,1,0,44.34a27.81,27.81,0,0,0,3.05.15A25.25,25.25,0,0,0,18.71,39.1a12.65,12.65,0,0,1-11.8-8.75,15.73,15.73,0,0,0,2.39.2,13.55,13.55,0,0,0,3.32-.43A12.62,12.62,0,0,1,2.5,17.73v-.15a12.69,12.69,0,0,0,5.7,1.6A12.64,12.64,0,0,1,4.3,2.3a35.85,35.85,0,0,0,26,13.21A14.69,14.69,0,0,1,30,12.62,12.63,12.63,0,0,1,51.84,4a24.75,24.75,0,0,0,8-3,12.55,12.55,0,0,1-5.54,7,25.3,25.3,0,0,0,7.26-1.95,27,27,0,0,1-6.33,6.52Z"/>
</svg>